<svg id="Layer_1" data-name="Layer 1" xmlns="http://www.w3.org/2000/svg" xmlns:xlink="http://www.w3.org/1999/xlink" viewBox="0 0 503.47 457.23"><defs><style>.cls-1{fill:#d8986c;}.cls-2{opacity:0.75;}.cls-3{fill:#d3ab90;}.cls-4{clip-path:url(#clip-path);}</style><clipPath id="clip-path"><circle class="cls-1" cx="241.27" cy="248.59" r="160.57"/></clipPath></defs><title>intro</title><g class="cls-2"><path class="cls-3" d="M372.36,270.41a110.08,110.08,0,0,0-4.9-32.46,91.26,91.26,0,0,0-14.09-28.17,72.22,72.22,0,0,0-23-19.9q-13.79-7.65-31.54-7.66a65.06,65.06,0,0,0-16.54,2.45A64.38,64.38,0,0,0,265.18,192,42.78,42.78,0,0,0,252,204.58a28.19,28.19,0,0,0-4.6,18.06A28.9,28.9,0,0,0,252.93,238q4.9,6.75,15.32,8.58a27.84,27.84,0,0,0,14.39-1.23,69.52,69.52,0,0,0,11-5.2,38.34,38.34,0,0,0,7.35-5.52c1.84-1.83,3.16-2.75,4-2.75q3.06.61,8.27,9.19t3.37,21.43q-2.46,16.53-14.39,25.42t-28.48,8.88q-23.28,0-37.36-18.68T222.31,230q0-31.83,12.25-51.75a96.16,96.16,0,0,1,31.54-31.85,147.13,147.13,0,0,1,44.1-17.76,468.34,468.34,0,0,1,49.91-8.88q25.11-3,48.38-5.81t40.42-8.27a63.17,63.17,0,0,0,22.66-13.78q9.19-8.88,8.58-21.13a21.66,21.66,0,0,0-5.51-12.86q-4.92-5.52-17.15-7.35a36.56,36.56,0,0,0-14.4,1.53,56.26,56.26,0,0,0-11,4.9,49.11,49.11,0,0,0-7.65,5.51q-3.07,2.76-3.68,2.76-3.08-.6-8.27-9.19t-3.36-21.43q1.83-12.26,8.87-19.91A43.62,43.62,0,0,1,434.52,3.39,51.41,51.41,0,0,1,454.73,0a54.76,54.76,0,0,1,20.52,4.6q16.53,8,22.66,24.19A81.93,81.93,0,0,1,503.42,61q-.62,25.12-13.17,45t-34,33.69q-21.43,13.77-49.6,20.82a244,244,0,0,1-59.41,7Q373,189,386.44,214.37T399.92,271q0,44.1-16.23,78.7A171.92,171.92,0,0,1,339,408.52q-28.47,24.19-66.75,36.74T189.85,457.2a281.28,281.28,0,0,1-70.43-10.1,181.63,181.63,0,0,1-60.93-29.4,146.29,146.29,0,0,1-42.57-50.52Q0,336.56,0,294.3A133.55,133.55,0,0,1,6.43,253a117.72,117.72,0,0,1,19-36.14A107.65,107.65,0,0,1,57,189.57q19-11,44.09-15.31v-1.84q-20.2-15.3-29.4-33.07a82.78,82.78,0,0,1-9.18-38.58q0-40.43,29.09-64.92t81.15-24.5A143.85,143.85,0,0,1,205.16,15,83.78,83.78,0,0,1,233,26.66a64.14,64.14,0,0,1,19.29,19.91q7.35,11.94,7.35,28.48A54.81,54.81,0,0,1,249,108.12q-10.71,14.7-30.92,14.7-13.49,0-20.83-6.74t-7.35-9.8c0-.4,1-1.43,3.07-3.06a69.31,69.31,0,0,0,7-6.74,46.89,46.89,0,0,0,7-10.1,29.22,29.22,0,0,0,3.06-13.78q0-18.37-12.86-28.79T166,33.4q-31.23,0-46.55,18.68a66.14,66.14,0,0,0-15.31,43.18q0,44.7,37.36,64.91h20.21a47.92,47.92,0,0,1,11.94,1.23q4.6,1.23,5.21,13.47A19.25,19.25,0,0,1,176.07,185c-1.83,3.06-4.8,4.59-8.88,4.59H145.76q-21.45,1.85-36.44,10.72a86.3,86.3,0,0,0-39.81,51.44,119.92,119.92,0,0,0-4.59,32.77q0,30,10.72,54.2a117.58,117.58,0,0,0,29.7,41q19,16.86,45.62,25.72t57.88,8.88a185.53,185.53,0,0,0,63.39-10.71,167.28,167.28,0,0,0,52-29.71,137.79,137.79,0,0,0,35.22-45.62A131.44,131.44,0,0,0,372.36,270.41Z"/></g><circle class="cls-1" cx="241.27" cy="248.59" r="160.57"/><g class="cls-4"><image width="1000" height="1169" transform="translate(79.45 81.17) scale(0.32)" xlink:href="1.jpg"/></g></svg>