<svg id="Layer_1" data-name="Layer 1" xmlns="http://www.w3.org/2000/svg" viewBox="0 0 75 75"><defs><style>.cls-1{fill:#d3ab90;}</style></defs><title>ceremony</title><path class="cls-1" d="M56.49,51.49a26.09,26.09,0,0,0-5.38-5.27c.17-3.21-.55-6.61-.76-9.82-.17-2.63-.15-5.29-.47-7.91H50a1.23,1.23,0,0,0,1.15-.69,1.11,1.11,0,0,0,.52-1.62c-2.29-3.35-4.78-6.54-7-9.95-1.72-2.64-3.29-5.4-5.14-8A26.83,26.83,0,0,0,38.92.67a1,1,0,0,0-1.81,0,23.35,23.35,0,0,0-.43,6.85c-4,6.39-8.63,12.89-11.82,19.71a.88.88,0,0,0,.87,1.24c.37.05.75.08,1.12.12-.62,5.07-1.11,11.35,0,16.38a105.53,105.53,0,0,0-8.24,6.69c-.92.84.26,2.3,1.31,1.7l1.27-.76a157,157,0,0,0-.3,20.57,1.12,1.12,0,0,0,.18.54.87.87,0,0,0,.72.83c5.25.73,10.67.37,16,.36s10.68.24,15.88-.66a.57.57,0,0,0,.42-.31.67.67,0,0,0,.55-.54,74.66,74.66,0,0,0,.32-20.28C55.88,53.53,57.22,52.51,56.49,51.49Zm-7.61-7-.57-.44c-2.38-1.85-6.72-6.6-9.82-6.79-2.78-.18-6.18,3.68-8.26,5.21L29,43.42c.44-4.73-.13-10.07-.62-14.66,6.45.51,13.24-.15,19.71-.25a55.71,55.71,0,0,0,.2,8.66A67.7,67.7,0,0,0,48.88,44.51Zm-11-34.28a1.11,1.11,0,0,0,.65,0,66,66,0,0,0,9.75,15.46c-6.69-.21-14.1-.59-20.67.78A132.78,132.78,0,0,0,37.85,10.23Zm5.58,62c.28-4.27.41-8.72-.71-12.87-.84-3.12-2.21-4.25-5.51-3.91-2.53.26-4.59,1.54-4.87,4.24a51.61,51.61,0,0,0,.54,12.5,81.12,81.12,0,0,0-9.87.28,149.82,149.82,0,0,0-.26-20.76c2.19-1.39,4.32-2.87,6.44-4.38s6.44-6.17,9.07-6.55c1.53-.23,8,5.89,8.86,6.58,1.94,1.55,3.75,3.25,5.79,4.62A75.68,75.68,0,0,0,53,72.76,63.08,63.08,0,0,0,43.43,72.18Z"/><path class="cls-1" d="M40.15,45.86H38.93c-.09-.61-.19-1.23-.32-1.84s-1.11-.46-1.18.16-.1,1.19-.13,1.78a5,5,0,0,0-2,.64.52.52,0,0,0,0,.89,5,5,0,0,0,2,.63l0,1.46c0,1.38-.21,2.71.71,3.81a.62.62,0,0,0,1-.13c.84-1.22.33-2.94.24-4.35,0-.23,0-.46,0-.68h1A1.19,1.19,0,0,0,40.15,45.86Z"/></svg>