<svg id="Layer_1" data-name="Layer 1" xmlns="http://www.w3.org/2000/svg" viewBox="0 0 75 75"><defs><style>.cls-1{fill:#d3ab90;}</style></defs><title>date</title><path class="cls-1" d="M74.6,39.65c0-10.27.85-21-.75-31.21a1.21,1.21,0,0,0-1.16-1.39C67.82,6.66,62.9,6.57,58,6.6c-.14-1.72-.2-3.51-1.31-4.87a.84.84,0,0,0-1.3.17c-1,1.32-.91,3.12-.91,4.73-3,0-6,.11-9.07.16a8.54,8.54,0,0,0-1-3.94,1.13,1.13,0,0,0-1.93,0,8.65,8.65,0,0,0-.67,4c-1.47,0-2.93,0-4.39,0-1.95,0-3.92,0-5.89-.07a9.47,9.47,0,0,0-.86-4.35,1.15,1.15,0,0,0-2,0,9.54,9.54,0,0,0-.86,4.28c-2.82-.06-5.66-.12-8.5-.14a13.74,13.74,0,0,0-1-4.47c-.42-1-1.66-.5-2,.25a14.31,14.31,0,0,0-.83,4.22,112.91,112.91,0,0,0-13.06.83A.9.9,0,0,0,1.25,8C-.89,18.15.37,29.5.36,39.79c0,5.43.07,10.87.15,16.3C.58,61,.15,66.21,1.32,71a1,1,0,0,0,.54,1.54c5.14,1.33,10.94.63,16.24.63H37.27c11.56,0,23.95,1.14,35.38-.76a.76.76,0,0,0,.6-.7A.87.87,0,0,0,74,71C75.84,61,74.6,49.84,74.6,39.65ZM37.27,70H19.16c-5.24,0-10.91-.65-16.09.38,1-4.61.6-9.59.67-14.27.07-5.43.14-10.87.14-16.3,0-3.68.15-7.49.26-11.33,4.64,1,9.7.46,14.41.47q9.15,0,18.28,0c11.32,0,23.05.86,34.34-.18.07,3.66.16,7.32.16,10.9,0,10.06-1.21,21.05.58,31C60.68,68.89,48.59,70,37.27,70Zm33.9-50c-10.85-1.25-22.37-.22-33.26-.21-11.08,0-22.68-.86-33.71.45a66.51,66.51,0,0,0-1-11,114.84,114.84,0,0,0,12.21.72c0,1.11.06,2.21.08,3.21a1.9,1.9,0,0,0,3.79,0c0-1,.1-2.09.12-3.2,2.77,0,5.55-.08,8.31-.13-.11,1.56-.18,3.3,1,4.25a1.35,1.35,0,0,0,1.83,0c1.23-1,1.14-2.74,1-4.33,1.94,0,3.88-.06,5.8-.06,1.47,0,2.94,0,4.42,0q0,1.44.15,2.88c.2,2.37,3.76,2.45,3.74,0,0-.94,0-1.88-.1-2.82,2.92.05,5.85.12,8.78.16a16.9,16.9,0,0,0,.29,3.26c.34,1.64,3.19,1.76,3.42,0A17.43,17.43,0,0,0,58.22,10c4.59,0,9.18-.07,13.71-.4A90.14,90.14,0,0,0,71.17,20Z"/><path class="cls-1" d="M38,44.35c-2.32-4-7.59-7.68-11.07-3.48-2.12,2.57-.8,5.74.6,8.26a97.89,97.89,0,0,0,9.2,13.31,1.68,1.68,0,0,0,2.37,0c3.5-3.77,7.28-7.8,9.58-12.47,1.41-2.86,3-7.57.66-10.38C45.68,35.25,40.23,39.86,38,44.35Z"/></svg>