<svg id="Layer_1" data-name="Layer 1" xmlns="http://www.w3.org/2000/svg" viewBox="0 0 75 75"><defs><style>.cls-1{fill:#d3ab90;}</style></defs><title>drinks</title><path class="cls-1" d="M42.72,56.52A38,38,0,0,0,40.41,43.4c-2.1-5.21-5.63-9.29-6.58-15-1-6.18-.71-12.65-.93-18.89A.49.49,0,0,0,32.63,9a.82.82,0,0,0-.75-.54l-.49,0c.73-2.23.71-4.92,1-7.22A1,1,0,0,0,31.48,0c-2.21,0-4.43,0-6.64,0A.86.86,0,0,0,24,.85a55.05,55.05,0,0,0,1.13,7.87c-.21,0-.43.09-.64.15h0a.59.59,0,0,0-.38.14.49.49,0,0,0-.43.5c-.22,6.24.1,12.71-.93,18.89-.95,5.72-4.48,9.8-6.57,15a38.29,38.29,0,0,0-2.32,13.12c-.14,4.78-.35,10,.77,14.66a.78.78,0,0,0,.22.4.58.58,0,0,0,.32.71c7.83,3.93,18.78,3.45,26.49-.56a.77.77,0,0,0,.39-.84C43.06,66.3,42.86,61.2,42.72,56.52ZM30.37,1.94a25,25,0,0,0-.47,6.48,23.57,23.57,0,0,0-3.36.08C26.37,6.24,26,4,25.79,1.74Zm1.38,8.26c-.07.67-.15,1.34-.22,2a16.91,16.91,0,0,0-3.26,0,18.4,18.4,0,0,0-3.23.3c-.08-.78-.16-1.55-.25-2.33C27.08,10.38,29.45,10.11,31.75,10.2ZM25.2,14.05a16.55,16.55,0,0,0,3.07.29,16.36,16.36,0,0,0,3.05,0c-.52,5.69-.67,11.51.65,17-.92.48-1.66,1.41-2.7,1.77-1.36.48-3.58-.4-4.77-1.49C25.91,25.94,25.75,19.92,25.2,14.05Zm-1.13,19a6,6,0,0,0,4.93,2,7.16,7.16,0,0,0,3.59-1.67,25.86,25.86,0,0,0,1.26,3.22c-1.71,1.15-3,2.74-5.31,2.83S24.33,38,22.85,36.33A27.56,27.56,0,0,0,24.07,33.09Zm-2.42,5.58c.17-.28.32-.57.47-.86a7.5,7.5,0,0,0,6.42,3.68c1.91,0,5-1.17,6.23-3a2.25,2.25,0,0,1,.12.21,42.85,42.85,0,0,1,4.94,11.14C35.86,49.93,32,51,28,50.9a92.75,92.75,0,0,1-11.17-1.32A43.4,43.4,0,0,1,21.65,38.67Zm18.66,31.7A41.62,41.62,0,0,1,28.4,72.88c-4.19.12-8.11-.81-12.14-1.73a1,1,0,0,0,0-.43c-.26-1.53-.44-3.09-.56-4.67,7.14,3.48,17.68,3.2,25.07.25C40.69,67.67,40.53,69,40.31,70.37Zm.61-6.11c-4.43.87-8.66,2-13.24,1.92-4.09,0-8-1.05-12-1.5a69.21,69.21,0,0,1,.27-10.31,29.23,29.23,0,0,1,.57-3.53c6.67,3.09,17.14,3.8,23.71.58.18.95.35,1.92.45,2.95A70.57,70.57,0,0,1,40.92,64.26Z"/><path class="cls-1" d="M54.54,69a76.33,76.33,0,0,0-.22-12.65c8.84-.56,7-17.59,6.46-22.9a.74.74,0,0,0-.47-.64.62.62,0,0,0-.44-.24c-3.95-.35-8.31.34-12.27.69a.65.65,0,0,0-.21.06.47.47,0,0,0-.55.43c-.66,5.77-3,21.76,6.32,22.58a77.05,77.05,0,0,0-.22,12.8A6.87,6.87,0,0,0,47.49,73a.83.83,0,0,0,.71,1.23c3.86-.18,7.73-.2,11.6-.41a.79.79,0,0,0,.76-1A6.43,6.43,0,0,0,54.54,69ZM47.79,34.29c3.67.26,7.87.47,11.51-.32,0,1.16.15,2.9.2,4.89A47.65,47.65,0,0,0,54,39a44.05,44.05,0,0,0-6.3.4C47.77,37.39,47.85,35.61,47.79,34.29Zm5,20.21c-4.86-1-5.19-8.06-5.06-14a45.28,45.28,0,0,0,6.79.19,20.7,20.7,0,0,0,5-.22C59.56,47.21,58.68,55.67,52.75,54.5Zm-3,18.07a7.15,7.15,0,0,1,3.41-2c1.92.13,4.28,0,5.43,1.68C55.66,72.42,52.71,72.56,49.76,72.57Z"/><path class="cls-1" d="M50,44.81a1,1,0,0,0,0,2A1,1,0,0,0,50,44.81Z"/><path class="cls-1" d="M54.92,44.32a1.15,1.15,0,0,0,0-2.3A1.15,1.15,0,0,0,54.92,44.32Z"/><path class="cls-1" d="M55.46,49.36a1.12,1.12,0,0,0,0-2.24A1.12,1.12,0,0,0,55.46,49.36Z"/><path class="cls-1" d="M52.15,49.76a1,1,0,0,0,0,2A1,1,0,0,0,52.15,49.76Z"/></svg>