<svg id="Layer_1" data-name="Layer 1" xmlns="http://www.w3.org/2000/svg" viewBox="0 0 183 163"><defs><style>.cls-1{fill:#fff;}</style></defs><title>intro</title><path class="cls-1" d="M95.39,68.68a6.18,6.18,0,0,0,1.15-.28l25-8.45c8.28-2.8,16.85-5.7,24.7-10,1.38-.76,2.84-1.78,3.13-3.56.38-2.38-1.73-4.29-4-4.94-3.37-1-6.95-.24-9.83.36-11.09,2.28-22.57,4.64-32.86,10.13-5.77,3.09-9.37,5.92-11,8.66a7.13,7.13,0,0,0-1,4.1,90.59,90.59,0,0,0-15,11.56c2.67-3,3.09-10.76,3.1-10.86.32-7.34-3.13-14.38-5.91-20a1.31,1.31,0,0,0-1.56-.78,1.44,1.44,0,0,0-1.16,1.3l-.81,10.28c-.06.72-.17,1.64-.29,2.69C68.22,66,67.69,72.7,70.39,75.76c1.29,1.46,2.48,1.72,3.37,1.59a3,3,0,0,0,.55-.14,3.12,3.12,0,0,0,1.11-.72c-1.63,1.57-3.21,3.19-4.73,4.88a4.49,4.49,0,0,0-1,1.08,91.06,91.06,0,0,0-15.66,25.39l-.29.75c.15-17.35-4.94-35.39-14-48.11A3.37,3.37,0,0,0,41,58.77a5.38,5.38,0,0,0-.67-3.92L29.1,31.79c-2-4.15-6.5-6.85-9.41-5.67-1.07.44-3.36,2-1.59,7.41,1.9,5.79,5,11.28,8.1,16.59.62,1.1,1.25,2.18,1.85,3.26,1.36,2.42,3.05,5.43,6,7.11a6.36,6.36,0,0,0,2.85.8,1.36,1.36,0,0,0,.1.21c11.39,15.5,16.5,39.68,12.73,60.19a91.3,91.3,0,0,0,.53,42.79,1.42,1.42,0,0,0,1.59,1.06.41.41,0,0,0,.16,0,1.42,1.42,0,0,0,1-1.74,88.36,88.36,0,0,1-.5-41.5v0a86.35,86.35,0,0,1,4.19-13.31,87.59,87.59,0,0,1,13.09-22.1,13.88,13.88,0,0,0,3.7,3.25,20.54,20.54,0,0,1,1.82,1.35,14.89,14.89,0,0,0,5,2.66,55.54,55.54,0,0,0,26.2,2.49c1-.14,1.9-.31,2.84-.49a1.46,1.46,0,0,0,1.09-1,1.43,1.43,0,0,0-.34-1.43c-4.91-5.07-11.38-7.86-18.71-10.74a46,46,0,0,0-10.18-3.08,26.59,26.59,0,0,0-5-.2A86.4,86.4,0,0,1,91.72,67.43,3.86,3.86,0,0,0,95.39,68.68ZM94.13,62c1.33-2.24,4.65-4.8,9.88-7.59,9.93-5.29,21.19-7.61,32.09-9.85,1-.2,2-.41,3-.57a13.16,13.16,0,0,1,5.42.15c1,.29,2.06,1.08,1.95,1.74s-.94,1.1-1.68,1.5c-7.62,4.21-16.07,7.06-24.23,9.82l-25,8.45c-.87.29-1.44.25-1.74-.12A3.62,3.62,0,0,1,94.13,62ZM30.55,52c-.61-1.08-1.23-2.17-1.87-3.27-3-5.19-6.05-10.56-7.86-16.07-.77-2.35-.57-3.64-.05-3.85,1.08-.41,4.21,1.08,5.75,4.26L37.75,56.11c.25.5.66,1.34.51,1.81,0,.08-.08.25-.41.38a3.1,3.1,0,0,1-2.38-.3C33.22,56.72,31.74,54.09,30.55,52Z"/><path class="cls-1" d="M35.08,82.78c1.91,1,4.59,2.31,6.7,2a3.26,3.26,0,0,0,1.54-.63,2.9,2.9,0,0,0,1.34-2.7c-.23-2-2.65-3.32-5.12-4.46L39,76.72a48.16,48.16,0,0,0-18.71-5.06,1.43,1.43,0,0,0-1.47,1.09c-.16.62-.26,2.19,2.12,3.31l13.45,6.36Z"/><path class="cls-1" d="M50.32,74.58l.13,0c5.17-1.24,7-8,8-13a98.69,98.69,0,0,0,1.43-10.69c.16-2-.59-3.46-2-3.84a1.45,1.45,0,0,0-1.69.82c-.39.93-.93,2.09-1.53,3.39-3.15,6.78-7.91,17-5.86,22.46A1.45,1.45,0,0,0,50.32,74.58Z"/><path class="cls-1" d="M15.44,25.4a4.16,4.16,0,0,0,1-.29,4.84,4.84,0,0,0,2.72-3.41,4.41,4.41,0,0,0-.88-3.87,3.7,3.7,0,0,0-3.58-1.27,5,5,0,0,0-3.58,3.32h0a4.35,4.35,0,0,0,.78,4.32A4,4,0,0,0,15.44,25.4Zm-1.57-4.63a2.21,2.21,0,0,1,1.43-1.4.81.81,0,0,1,.85.35,1.64,1.64,0,0,1,.24,1.36,2,2,0,0,1-1.05,1.39,1.2,1.2,0,0,1-1.3-.2A1.64,1.64,0,0,1,13.87,20.77Z"/><path class="cls-1" d="M156.26,37.77a5,5,0,0,0-4.4,2.11,4.4,4.4,0,0,0-.54,4.36,4.07,4.07,0,0,0,4.08,2.21l.15,0A4.88,4.88,0,0,0,159,44a4.44,4.44,0,0,0,.3-4A3.69,3.69,0,0,0,156.26,37.77Zm.25,4.81a2.21,2.21,0,0,1-1.41,1,1.22,1.22,0,0,1-1.18-.58,1.59,1.59,0,0,1,.28-1.48,2.21,2.21,0,0,1,1.78-.92.81.81,0,0,1,.7.58A1.62,1.62,0,0,1,156.51,42.58Z"/></svg>