<svg id="Layer_1" data-name="Layer 1" xmlns="http://www.w3.org/2000/svg" viewBox="0 0 75 75"><defs><style>.cls-1{fill:#d3ab90;}</style></defs><title>food</title><path class="cls-1" d="M10.14,16.87a.62.62,0,0,0-1.18,0C8.6,18.82,9.38,23.46,9,27a6.84,6.84,0,0,0-1.44-.18c0-3.1.06-6.19.06-9.29a.8.8,0,0,0-1.6,0c0,3.1,0,6.19.06,9.29-.42,0-.85,0-1.25,0l-.36,0a62.59,62.59,0,0,0,.38-9.28.79.79,0,0,0-1.57,0,65.4,65.4,0,0,0-.09,9.18,3,3,0,0,0-1.29.21c-.42-3.36.16-7.64-.08-9.56-.06-.53-.93-.79-1-.14-.59,3.51-1.11,8-.49,11.56A5.59,5.59,0,0,0,4.34,33.1a77.68,77.68,0,0,0,0,12.67c.21,4.39-.14,9.16,1.26,13.35a.78.78,0,0,0,1.5,0c1-4.29.32-9,.26-13.35a95.91,95.91,0,0,0-.54-12.34c2.06-.23,3.23-1.93,3.67-4.12a25.3,25.3,0,0,0,.13-5.64A32.22,32.22,0,0,0,10.14,16.87ZM5.8,31.52a1.48,1.48,0,0,0-.63,0c-1.65-.11-2.53-1.33-3-3a7.53,7.53,0,0,0,2.36.29,14.58,14.58,0,0,0,4.12,0C8.22,30.29,7.36,31.38,5.8,31.52Z"/><path class="cls-1" d="M74.55,50.48c0-4.07-.22-8.16-.2-12.17,0-7,.39-14.09-.06-21.11a.51.51,0,0,0-.47-.52.8.8,0,0,0-1.26.19A61.58,61.58,0,0,0,67.16,40a1,1,0,0,0,1,1l2.7.33c-.66,2.07-.07,4.85,0,6.8.19,3.58-.27,8.13,1,11.46a1.24,1.24,0,0,0,2.23.3C75.52,57.18,74.92,53.61,74.55,50.48ZM72.26,39.32v.18q-1.53-.16-3.06-.36a74.18,74.18,0,0,1,3.54-17.66C72.26,27.4,72.29,33.39,72.26,39.32Z"/><path class="cls-1" d="M20.26,17.3c-5.64,4.19-7.92,10.41-8.41,17.28-1,14.22,8,28.07,22.92,29,6.85.41,14.49-.65,19.94-5.14A28.38,28.38,0,0,0,64.15,41C66.49,17.24,42.83,2.55,20.26,17.3ZM61.92,40.76c-.7,6-4.52,13.13-9.5,16.67-4.79,3.4-11.16,4.2-16.9,4-13.36-.54-22-12.15-21.68-25.1.17-7.18,2.48-14,8.67-18.06,4.69-3.08,9.83-4.17,15.2-4.6C52.53,13.62,63.44,27.72,61.92,40.76Z"/><path class="cls-1" d="M34.07,23c-7,1.4-12.38,8.39-12,15.85.48,9.29,9.25,16,18.17,14.94,9.58-1.12,15.94-12.68,12.55-21.63C50.27,25.43,41,18.9,34.07,23Zm5,27.92c-6.74.2-12.72-4-14.12-10.78-1.58-7.69,4.74-14.22,11.81-15.34,6.14-.44,12.28,3.09,13.91,9.54C52.57,41.91,47.06,50.64,39.05,50.88Z"/></svg>