<svg id="Layer_1" data-name="Layer 1" xmlns="http://www.w3.org/2000/svg" viewBox="0 0 75 75"><defs><style>.cls-1{fill:#d3ab90;}</style></defs><title>drinks-02</title><path class="cls-1" d="M33.37,15.93a.88.88,0,0,0-.5-.73.9.9,0,0,0-.82-.83c-5.13-.77-10.66-1.93-15.84-1.48a.82.82,0,0,0-.66.46.69.69,0,0,0-.61.5c-2.07,7.57-8.06,29.38,3.66,32.54a77.75,77.75,0,0,0-1.5,9.49c-.45,3.7-1.18,7.57-.88,11.3A7.7,7.7,0,0,0,8.61,70.8a.59.59,0,0,0,.05,1.1A52.63,52.63,0,0,0,22,75c.79.09,1.07-.77.8-1.36a.74.74,0,0,0,.06-.62,8.23,8.23,0,0,0-5-5.46c2.3-5.93,3-14.41,2.55-20.83l.13,0c5,.41,8.38-3.72,9.82-8A64.78,64.78,0,0,0,33.37,15.93Zm-13,56.69a53.42,53.42,0,0,0-10.07-1.78c1.78-1.21,3.62-2.24,5.94-1.73S19.33,71.08,20.39,72.62ZM16.34,14.48c4.89,1.19,10.13,1.32,15.1,2.09h.12c-.42,2.31-.7,4.65-1,7a46.63,46.63,0,0,0-7.93-.19,40.94,40.94,0,0,0-7.67.41C15.47,19.84,16.1,16.35,16.34,14.48Zm6.4,29.38c-8.68,2.27-8.93-9-7.92-18.54a39.47,39.47,0,0,0,7.84.42,50.6,50.6,0,0,0,7.69-.17c-.18,1.49-.37,3-.62,4.45C29,34.56,28.22,42.43,22.74,43.86ZM19.21,33.73a1.32,1.32,0,0,1,0-2.63A1.32,1.32,0,0,1,19.21,33.73Zm5.89-3.24a1.22,1.22,0,0,1,0-2.43A1.22,1.22,0,0,1,25.1,30.49Zm1.59,6.41a1.19,1.19,0,0,1-1.86-.24l-.08-.15A1.15,1.15,0,0,1,26.3,35l.15.08A1.19,1.19,0,0,1,26.69,36.9Zm-4.63,4L22,41a1.09,1.09,0,0,1-1.46.7,1.08,1.08,0,0,1-.51-1.53l.08-.12a1.08,1.08,0,0,1,1.32-.43A1.06,1.06,0,0,1,22.06,40.87Zm44.67,26c-.45-2.76-4.59-4.27-7.06-3.8l-.43.11c-.42-3.19-1.89-6.32-2.92-9.33A94.59,94.59,0,0,0,52.76,44c11.42-3.93,4.91-22.84.91-29.94a.65.65,0,0,0-.83-.31,1,1,0,0,0-.43,0,95.81,95.81,0,0,0-16,3.86.52.52,0,0,0-.11.07.7.7,0,0,0-.83.83C37,26.32,38.87,46.82,51.13,44.47a94.65,94.65,0,0,0,3.14,10.77c.9,2.9,1.54,6.13,3,8.79a8,8,0,0,0-4,5.82.55.55,0,0,0,0,.26c-.32.35-.13,1.07.42,1a33,33,0,0,0,5.68-1.4c2.1-.61,4.25-1.08,6.31-1.8a.91.91,0,0,0,.37-.24A.68.68,0,0,0,66.73,66.89ZM37.09,19a98,98,0,0,0,15.53-3.13c.73,2.77,2.26,7.16,3.22,11.56a74.42,74.42,0,0,0-7.74-.7,43.8,43.8,0,0,0-8.79-.16C38.6,24,37.88,21.49,37.09,19ZM49.76,42.15c-6,.1-7.88-6.43-9.16-11-.33-1.17-.66-2.35-1-3.53a43.55,43.55,0,0,0,7.8,1.14,65,65,0,0,0,8.81.62C57.38,36,56.77,42,49.76,42.15Zm5.53,27c1.21-2,2.72-4.16,5.35-4.19A5.24,5.24,0,0,1,64,66.48,43,43,0,0,0,55.29,69.12ZM44.53,35.74a1.32,1.32,0,0,1,0-2.63A1.32,1.32,0,0,1,44.53,35.74Zm4.26-3.5a1.33,1.33,0,0,1,0-2.66A1.33,1.33,0,0,1,48.79,32.24Zm1.67,5.88a1.38,1.38,0,1,1-1.37-1.38A1.39,1.39,0,0,1,50.46,38.12Zm4.22-2.3a1.15,1.15,0,0,1,0-2.29A1.15,1.15,0,0,1,54.68,35.82ZM36.57,9.9a.58.58,0,0,1-1.07.29,42.22,42.22,0,0,1-2.27-4.81C32.6,3.9,31.66,2.47,32,.85A1.15,1.15,0,0,1,33.66.17c1.38,1,1.67,2.74,2.09,4.33A22.55,22.55,0,0,1,36.57,9.9ZM46.2,5a13.19,13.19,0,0,1-2.84,2.52c-.49.43-1,.82-1.5,1.25s-1,.6-1.44,1a.37.37,0,0,1-.62-.36,13.07,13.07,0,0,1,.39-2,9.6,9.6,0,0,1,1-1.88C42,4.49,43,3.11,44.42,2.71A1.59,1.59,0,0,1,46.2,5Zm-16,4.65c-.82-.58-1.71-1-2.53-1.62S26,6.87,25.14,6.35a1.65,1.65,0,0,1-.81-1.42V4.74A1.33,1.33,0,0,1,25,3.58l.14-.06a1.62,1.62,0,0,1,1.65,0,18.15,18.15,0,0,1,2.65,2.3,11.89,11.89,0,0,1,1.79,2.87C31.52,9.28,30.88,10.12,30.25,9.68Z"/></svg>