<svg id="Layer_1" data-name="Layer 1" xmlns="http://www.w3.org/2000/svg" viewBox="0 0 75 75"><defs><style>.cls-1{fill:#d3ab90;}</style></defs><title>rsvp</title><path class="cls-1" d="M74.65,60.27c.22-14.91,1-30.63-.87-45.44a1.16,1.16,0,0,0-.71-1A1.26,1.26,0,0,0,72,13.09c-11.41-1.08-23.26-.27-34.72-.31s-23.19-.4-34.73.21a1,1,0,0,0-.81.45,1,1,0,0,0-.62.85c-1,7.85-.73,15.89-.78,23.8,0,7-1,15,.66,21.86a.78.78,0,0,0,.42.51.61.61,0,0,0,.4.27c11.26,2,23.47,1,34.89,1.12,12.14.14,24.67,1.19,36.76.21a1.23,1.23,0,0,0,1.17-1.56Zm-3.23-2.08C63.28,51.07,53.88,45.07,45.1,38.7a11.5,11.5,0,0,0,1.77-5.27A186,186,0,0,0,71.34,17.1C70.13,30.57,70.94,44.67,71.42,58.19ZM37.26,15.59c10.61.06,21.54.82,32.16.16C61.8,21,53.9,26,46.32,31.34a3.32,3.32,0,0,0-3.45-1.7c-2.14.32-4,2.07-5.32,4A6.78,6.78,0,0,0,34,29.69a4.81,4.81,0,0,0-4.3.14c-2.87-1.94-5.92-3.68-8.75-5.52-4.79-3.11-9.59-6.19-14.53-9C16.66,15.72,27,15.53,37.26,15.59ZM3.51,38.09c0-7.63.33-15.39-.44-23l.78,0a.72.72,0,0,0,.31.51c5.05,3.78,10.29,7.26,15.56,10.72,2.77,1.81,5.51,3.84,8.36,5.65-.62,2.63,1.6,5.63,2.92,7.76-9.49,5.7-19.38,11.67-28,18.45C4.19,51.79,3.47,44.55,3.51,38.09ZM36.69,59c-10.68-.1-22-1.14-32.67.12C13.62,54,23,47.5,31.94,41.27c.91,1.45,1.85,2.88,2.85,4.26.61.84,1.36,2.36,2.46,2.69,2.35.7,4.18-3.7,5.06-5.11.56-.88,1.26-1.9,1.95-3,8.26,6.49,16.49,13.57,25.38,19.13C58.75,58.48,47.56,59.06,36.69,59Z"/></svg>