<svg id="Layer_1" data-name="Layer 1" xmlns="http://www.w3.org/2000/svg" viewBox="0 0 183 163"><defs><style>.cls-1{fill:#d3ab90;}</style></defs><title>timeline</title><path class="cls-1" d="M168.84,99.46a73.28,73.28,0,0,0-33.19-7.91A49.47,49.47,0,0,1,155.82,86a5.47,5.47,0,0,0,2.48-.53c1.73-.93,2.47-3,2-5.68-1.6-9.63-11-17.35-21.82-18-8.92-.56-18.64,3.48-26.64,10.95-.15.14-.28.29-.43.43a152.59,152.59,0,0,1,9.57-20l.52-.93c2.6-4.67,5.55-10,4.65-15.7a1.71,1.71,0,0,0-.88-1.24,1.68,1.68,0,0,0-1.51-.06,68.88,68.88,0,0,0-26.3,21c0-.38-.07-.76-.11-1.15q-.7-6.2-1.62-12.34a17.41,17.41,0,0,0-1.7-6.06A2.76,2.76,0,0,0,91.4,35a2.91,2.91,0,0,0-1.93,1.06,32.77,32.77,0,0,0-5.6,8.59l-1.22-2.2a1.71,1.71,0,0,0-1.45-.88,1.82,1.82,0,0,0-1.5.79,37.74,37.74,0,0,0-5,12.35c-.36-.57-.71-1.13-1.08-1.68A149,149,0,0,0,61.1,37.41,3.5,3.5,0,0,0,59,36.08a2.66,2.66,0,0,0-2.33.77A4.91,4.91,0,0,0,55.76,41c2.09,10.87,4.72,23.1,9.33,34.67-9.89-8.32-21.4-14.57-32.45-20.25-2.11-1.07-3.79-1.07-5,0A4.1,4.1,0,0,0,26.44,58c-.85,5.91,2.72,11.18,6.32,15.55,5.88,7.14,14.86,15.15,21.8,20.95-11.67-3.28-25-4.44-40.65-3.49-4.6.27-7.34,1.82-8.14,4.59-1.09,3.72,1.93,7,8.08,8.87,7.68,2.29,15,6,22.13,9.67,5,2.54,10.15,5.18,15.44,7.33a101,101,0,0,0,17.89,5.37,37.87,37.87,0,0,0,7.21.69c5.32,0,10.88-1.15,12.82-4.68a5.28,5.28,0,0,0,.52-1.42,19.33,19.33,0,0,0,9.41,2.2c.79,0,1.6,0,2.42-.11,6.7-.6,13-3.12,19-5.56,2.62-1,5.32-2.14,8-3a73.13,73.13,0,0,1,43.41-.94c.85.25,3.06.9,4.54-.68a3.78,3.78,0,0,0,.94-2.3C178,106.66,174.9,102.57,168.84,99.46Zm5.07,9.19c-8.54-3.7-18.85-5-30-3.57-10.59,1.31-21,4.79-30.57,8.35l-.15.06c-6.22,2.3-12.63,4.67-19,4.08a21.21,21.21,0,0,0,2.32-.79c6.36-.66,14-4.09,22.08-7.71,7.35-3.3,14.94-6.71,21.58-7.91a67.39,67.39,0,0,1,13.41-.92A40.61,40.61,0,0,1,166.26,102c.34.16.68.32,1,.5C169.51,103.66,172.94,105.82,173.91,108.65ZM161.73,100a52.18,52.18,0,0,0-8.07-.62,68.15,68.15,0,0,0-13.57.92c-6.75,1.22-14.39,4.66-21.78,8-6.78,3.06-13.28,6-18.89,7.18a82.16,82.16,0,0,0,10.58-7l2.7-2c5.28-3.86,10.62-7.77,16.15-11.13A69.67,69.67,0,0,1,161.73,100ZM114.21,75.28c7.32-6.84,16.11-10.53,24.1-10,9.13.52,17.32,7.16,18.64,15.11.18,1.12,0,2-.27,2.1a3.32,3.32,0,0,1-1.06.12c-17,.62-31.2,11-44.94,21.11l-2.73,2c-4.17,3.12-13.94,10.41-18.41,8.72a1,1,0,0,1-.71-.67c-.81-2.73,4.61-10.23,6.92-13.43.86-1.19,1.57-2.17,2-2.82C102.51,89.67,107.47,81.58,114.21,75.28Zm-32.6,32.87a61.55,61.55,0,0,0-8.9-12.22c-2.41-2.69-5.08-5.21-7.45-7.44C54.56,78.38,44.75,69.27,35.41,60.75c10.5,5.51,21.17,11.68,30.07,19.79,9.73,8.86,16.27,19.35,18.75,30C83.38,109.68,82.5,108.9,81.61,108.15Zm40-63.64A164.7,164.7,0,0,0,108.82,64c-6.08,10.92-10.93,22.57-15.56,33.94L93,98.3c-1.15,1.59-2.27,3.16-3.28,4.69a112.59,112.59,0,0,1,3-12.67C96,79.83,102,70.21,108,61.38c4.75-7,9.8-13.92,14.71-20.67A17.52,17.52,0,0,1,121.6,44.51Zm-3.59,7c-4.34,7.85-9.6,18-12,27.65A141.7,141.7,0,0,0,95.68,94.25a279.33,279.33,0,0,1,13.89-29.86,161.84,161.84,0,0,1,10.09-15.84l-1.12,2Zm4.35-11.76c-5,6.88-10.18,14-15,21.13-6,8.88-12.1,18.56-15.43,29.16A127.62,127.62,0,0,0,88.46,105c-.54.89-1,1.77-1.46,2.61-.22-.8-.47-1.6-.74-2.39a1.55,1.55,0,0,0,.07-.48A70.62,70.62,0,0,1,91.17,74.3v0a68.17,68.17,0,0,1,4.49-9.21A66.06,66.06,0,0,1,122.36,39.77Zm-30.95-.69a18,18,0,0,1,1,4.17q.9,6.11,1.59,12.22a14.58,14.58,0,0,1-.1,5.7,1.72,1.72,0,0,0,0,.32c-.39.61-.77,1.22-1.14,1.85s-.74,1.3-1.1,2a38.17,38.17,0,0,0-1.87-8.14A64.23,64.23,0,0,0,86,48.64,29,29,0,0,1,91.41,39.08ZM86.5,58.27A28.85,28.85,0,0,1,88,73.05a74.71,74.71,0,0,0-2.79,8.54c-.38-2-.85-4-1.39-6,.27-3.8-.53-7.57-1.31-11.22-.24-1.13-.48-2.26-.69-3.39a63.55,63.55,0,0,1-1-13.49c.11-.23.22-.47.34-.7A74.2,74.2,0,0,1,86.5,58.27Zm-6.6-8.83A63.52,63.52,0,0,0,81,61.12c.21,1.13.45,2.27.69,3.4A53.88,53.88,0,0,1,83,72.69a78.76,78.76,0,0,0-5.52-13.23A34.7,34.7,0,0,1,79.9,49.44ZM59.12,40.35A140.42,140.42,0,0,1,70.77,54.93C71.94,56.69,73,58.51,74,60.38a1.67,1.67,0,0,0,.35.64A75.51,75.51,0,0,1,83.1,93.2s0,0,0,.07c-.12,1.3-.22,2.6-.27,3.91A68.27,68.27,0,0,0,71.41,81.53c-6.56-13.2-9.78-28.16-12.28-41.16ZM29.9,58.07a3.42,3.42,0,0,1,1.17.42l1.38.72c10.06,9.14,20.61,18.94,32.23,29.9,2.35,2.22,5,4.73,7.39,7.39a64.18,64.18,0,0,1,7.75,10.2q-1.83-1.41-3.71-2.64-1-1.05-1.89-2.1c-.64-.71-1.27-1.43-1.92-2.13-3-3.2-6.24-6.11-9.41-8.92L46.48,76.39c-6-5.35-12.28-10.88-16.6-17.84,0,0,0,0-.05,0v0C29.87,58.25,29.9,58.12,29.9,58.07Zm5.51,13.29C32.6,68,29.82,64,29.76,59.9c4.35,6.64,10.33,12,16.15,17.13L62.32,91.56a127.35,127.35,0,0,1,9.35,8.85c.6.65,1.2,1.32,1.79,2A75.6,75.6,0,0,0,64,97.7C57.93,93,43.55,81.25,35.41,71.36ZM14.12,94.42c3.49-.21,6.85-.32,10.1-.32,12.39,0,23.16,1.54,32.7,4.65,7.58,2.48,18.28,7.18,26.24,15.52a17.51,17.51,0,0,1,2.62,3.4,1.66,1.66,0,0,0,.34.69l0,0a4.37,4.37,0,0,1,.41,1.74,10.42,10.42,0,0,1-4.13-1.09,72.28,72.28,0,0,1-7.53-4.14,53.49,53.49,0,0,0-10.49-5.3,53.3,53.3,0,0,0-9.37-1.89l-1.13-.16c-9-1.29-18-3.14-26.76-4.94A78.47,78.47,0,0,1,16,99.75c-2-.73-4.73-2-6.09-4.27A9,9,0,0,1,14.12,94.42ZM70,123.47a95.71,95.71,0,0,1-17.27-5.19c-5.17-2.09-10.26-4.69-15.18-7.2-7.24-3.7-14.73-7.52-22.72-9.91-.67-.2-6.52-2-5.76-4.62a1.62,1.62,0,0,1,.22-.46c1.53,2.42,4.35,3.7,6.42,4.46A80.38,80.38,0,0,0,27,103.46c8.75,1.8,17.8,3.66,26.81,5l1.13.16a52.87,52.87,0,0,1,9.22,1.86,52.78,52.78,0,0,1,10.31,5.21,71.31,71.31,0,0,0,7.64,4.19A11.25,11.25,0,0,0,86.41,121c0,.07,0,.14-.07.2C84.87,123.86,77.22,124.92,70,123.47Zm104.16-12.83c0,.12,0,.2,0,.24a3.91,3.91,0,0,1-1.09-.2,76.57,76.57,0,0,0-45.47,1c-2.76.94-5.51,2-8.17,3.12-6.08,2.45-11.83,4.76-18,5.32-2.15.2-6.87.26-10.43-2h0c.22,0,.45,0,.67,0a21.45,21.45,0,0,0,4.63.5c5.82,0,11.61-2.15,17.25-4.24l.15-.05c9.57-3.55,19.87-7,30.37-8.31,11.21-1.4,21.59-.09,30.1,3.74A4.49,4.49,0,0,1,174.15,110.64Z"/></svg>