<svg id="Layer_1" data-name="Layer 1" xmlns="http://www.w3.org/2000/svg" viewBox="0 0 75 75"><defs><style>.cls-1{fill:#d3ab90;}</style></defs><title>venue</title><path class="cls-1" d="M71.15,49c0-6.89-.07-13.88-1.85-20.58-2.42-9.1-9.85-21.22-20.24-22a7.42,7.42,0,0,0-.66-3.25c-2.12-4.76-8.13-3.08-10.12.74A5.92,5.92,0,0,0,33.57.05C31-.27,28.07.9,27,3.46a6.69,6.69,0,0,0-.43,3.07C14.62,8.72,8.33,18.15,6.05,29.59,3.18,44,3.61,59.13,4.36,73.71a1,1,0,0,0,.94,1h0a21.6,21.6,0,0,0,5.51.25,15,15,0,0,0,4.64-.44,1,1,0,0,0,1.23-1.06c-.08-11.19-.53-22.46,0-33.65,0-.67.07-1.34.11-2,6.24-.23,8.76-7.06,6.67-12.27a9.94,9.94,0,0,0,7.68.31c2.46-.88,5.33-2.65,6.57-5.12a11.4,11.4,0,0,0,6,5.3,10.23,10.23,0,0,0,7.31.21A9.88,9.88,0,0,0,50.63,32c1,3.7,4.34,7.5,8.37,7.35,1.22,11.2-.32,23.48-.53,33.5a1,1,0,0,0,1.31,1c3,1,6.34.84,9.47,1a1.2,1.2,0,0,0,1.31-1.18,1.07,1.07,0,0,0,.57-1C71.24,64.8,71.19,56.91,71.15,49ZM64.21,63.34a10.8,10.8,0,0,0-3,.39c.13-2.09.27-4.19.37-6.3,1,.1,1.94.09,2.91.1a40,40,0,0,0,4.24,0c0,2,0,3.93,0,5.89A16.23,16.23,0,0,0,64.21,63.34Zm4.55-8.46A17.72,17.72,0,0,0,61.7,55c.08-2,.13-4.06.13-6.08a19.59,19.59,0,0,0,3,.22A13.62,13.62,0,0,0,68.71,49C68.75,50.93,68.76,52.91,68.76,54.88Zm-.11-8.43a21.15,21.15,0,0,0-3.81.08c-1,0-2-.05-3,0,0-2.35-.14-4.7-.35-7a29.57,29.57,0,0,0,3.23.23,21.07,21.07,0,0,0,3.65.17C68.5,42.12,68.59,44.28,68.65,46.45ZM7.08,38.66c2.21.73,4.76.64,7.06.83,0,1.7,0,3.4,0,5.1a13.67,13.67,0,0,0-2.88-.23,27.88,27.88,0,0,0-4.66.08C6.73,42.51,6.88,40.59,7.08,38.66Zm-.62,8.18a28.18,28.18,0,0,0,4.49.5,13.79,13.79,0,0,0,3.27.12c0,1.15.06,2.3.07,3.44,0,.59,0,1.18,0,1.77A19.5,19.5,0,0,0,10,52.56a23.19,23.19,0,0,0-3.72.19C6.3,50.78,6.37,48.81,6.46,46.84Zm-.23,8.31a31.45,31.45,0,0,0,3.76,0,25.15,25.15,0,0,0,4.34,0c0,2.23,0,4.47.05,6.7a20.43,20.43,0,0,0-4.49-.09c-1.2,0-2.44-.12-3.65-.06C6.22,59.51,6.21,57.33,6.23,55.15Zm4.21,17.3c-1.32,0-2.68,0-4,.18-.07-2.8-.13-5.59-.18-8.39a9.41,9.41,0,0,0,3,.36,22.43,22.43,0,0,0,5.18-.1c0,2.62,0,5.24.06,7.86A29.91,29.91,0,0,0,10.44,72.45Zm4.29-40c-.21,1.3-.34,2.6-.44,3.91-2.24-.15-4.77-.44-7,.22,0-.48.1-1,.16-1.45.76-5.63,1.81-11.55,4.77-16.5,3.47-5.8,8.81-8,14.57-10.68a14.24,14.24,0,0,0,3,5.54C21.11,14.27,15.94,24.82,14.73,32.41Zm6.11-1.75A8.82,8.82,0,0,1,17,35.74a30.62,30.62,0,0,1,3.29-12.13l0,0C20.82,26,21.52,28.16,20.84,30.66Zm.54-8.77c2.45-3.38,5.72-5.32,9.56-7.19a16.72,16.72,0,0,0,5.16,3.65C32.14,22.51,27,24.89,21.38,21.89Zm16-4.9,0,0c-2.53-2.22-5.11-4.11-6.89-7.13-1.47-2.5-2.18-6.14,1-7.54,3.29-1.46,4.95,2.1,6.3,4.34h0a.73.73,0,0,0,1.41.06c.79-2.17,2.25-4.47,4.83-4.44,3.63.05,3,5,1.69,7.11A20.64,20.64,0,0,1,37.33,17Zm7,5.8c-2.3-.93-3.62-2.59-5.18-4.27a20.43,20.43,0,0,0,6.5-4.72,27.06,27.06,0,0,1,8.18,8.53C51.12,24,47.09,23.93,44.29,22.79Zm10.56,1.44a40.8,40.8,0,0,1,3.85,12.7C53.79,34.94,51.38,28.68,54.85,24.23ZM46.72,12.45A12.15,12.15,0,0,0,48.86,8C61.06,11.12,67,25.56,68.12,37v0a23,23,0,0,0-3.42,0,20.29,20.29,0,0,0-3.48.17c-.09-.71-.18-1.41-.29-2.12C59.61,26.36,55.64,15.76,46.72,12.45ZM62.58,71.87a11.64,11.64,0,0,0-1.87,0c.11-2,.25-4,.37-6,1.37.06,2.74.06,4.1.1A13.08,13.08,0,0,0,68.72,66c0,2,0,4.08,0,6.11C66.7,72,64.64,71.9,62.58,71.87Z"/></svg>