<svg id="Layer_1" data-name="Layer 1" xmlns="http://www.w3.org/2000/svg" viewBox="0 0 75 75"><defs><style>.cls-1{fill:#d3ab90;}</style></defs><title>virtual</title><path class="cls-1" d="M74,22.22a1.18,1.18,0,0,0-1.16-1.16c-5.47,0-11-.19-16.53-.15-.59-1.71-2.08-3-3.13-4.4a21,21,0,0,0-3-3.84A.93.93,0,0,0,49.4,12a72.77,72.77,0,0,0-23.73.9.69.69,0,0,0-.49,0c-1.58.62-2,2.61-2.73,4s-1.52,2.51-2.12,3.84l-1.52,0a2.51,2.51,0,0,0-1.88-3c-3-.46-6.48-.07-9.55-.05a1.24,1.24,0,0,0-1.23,1.23c0,.67.06,1.34.09,2-1.45,0-2.91,0-4.36-.09A1.24,1.24,0,0,0,.65,22.07C.5,35.1.15,48.12,0,61.14a1.22,1.22,0,0,0,1.21,1.21c9.54-.44,19.11.4,28.64.07a23.24,23.24,0,0,0,9.64,1.1,27.27,27.27,0,0,0,7.76-1.93c4.63.36,9.37-.06,14-.18,4.33-.11,8.71,0,13-.74a.57.57,0,0,0,.45-.43,1,1,0,0,0,.2-.57C75.33,47.22,74.35,34.66,74,22.22ZM24.39,18.33a15.36,15.36,0,0,0,1.82-3.41c4,.28,8-.13,12-.25,3.54-.11,7.11,0,10.62-.39A12.86,12.86,0,0,0,51,18.39,17.45,17.45,0,0,0,53.06,21C50,21,47,21.18,44,21.47a13.52,13.52,0,0,0-8.4-.7c-4.18-.25-8.38-.25-12.6-.16C23.48,19.88,23.94,19.1,24.39,18.33ZM2.44,59.92c.26-12.18.38-24.37.65-36.55a191.08,191.08,0,0,0,23.23.28,22.09,22.09,0,0,0-11,20.73A20.65,20.65,0,0,0,24.85,60C17.41,59.53,9.84,59.85,2.44,59.92Zm35.31.82c-10.3.44-19.74-7.37-19.83-18.05-.11-11.47,8.26-17.25,18.27-19.3,4.55.24,8.52.6,12.42,3.95A23.2,23.2,0,0,1,56,40C58.56,52.25,49.3,60.25,37.75,60.74Zm13.87-1.57c5.45-3.91,8.56-10.2,7.31-18.25a26.4,26.4,0,0,0-9.75-16.58,17,17,0,0,0-1.49-1c8,.34,16,0,24,.07.29,11.91.13,24,1.21,35.81A86.72,86.72,0,0,0,51.62,59.17Z"/><path class="cls-1" d="M53.17,39.29C52.11,31.87,43.47,24,35.83,26.77A14.27,14.27,0,0,0,22.12,42.92c1.17,9.35,8.51,14.87,17.75,13.5C48.15,55.2,54.4,47.81,53.17,39.29Zm-15,14c-7.36.5-12.69-4.79-13-12.16-.31-7,4.73-10.12,10.32-12,2.76.18,5.47,0,8.07,1.29A11.88,11.88,0,0,1,49.94,40C50.69,47.05,45.06,52.84,38.13,53.31Z"/><path class="cls-1" d="M36.94,33.42A7.89,7.89,0,0,0,35,34.2a8.26,8.26,0,0,0-3,2.18c-3.62,4.15-2.27,11.3,3.15,13.16,5.23,1.79,11.36-2.39,11.7-7.91A8,8,0,0,0,36.94,33.42Z"/></svg>