<svg id="Layer_1" data-name="Layer 1" xmlns="http://www.w3.org/2000/svg" viewBox="0 0 75 75"><defs><style>.cls-1{fill:#d3ab90;}</style></defs><title>wear</title><path class="cls-1" d="M71.49,65.33A165.69,165.69,0,0,0,60.22,44.11c-3.32-5.46-6.5-12.19-11.39-16.49a2.91,2.91,0,0,0-.22-1.92c2.23-4.33,6.88-16.54.75-19.81a4.85,4.85,0,0,0-.62-.27c-.07-.88-.12-1.76-.11-2.65A4.69,4.69,0,0,0,48.24.48a1,1,0,0,0-1.55-.2c-1.19,1.17-1,3.42-.68,5.1-3.44.56-7,4-8.65,7.05-1.17-3.8-5.56-7-9.47-6.39-.1-.4-.23-.8-.31-1.13-.27-1.1-.31-2.5-1.17-3.32a1,1,0,0,0-1.57.21c-.95,1.32-.23,3.75.59,5.27-5.91,4.27.68,14.35,3.29,18.61h0a4,4,0,0,0,.12,1.37C24,31,20,36.74,16.38,41.7a112.42,112.42,0,0,0-12.52,21h0a.73.73,0,0,0-.23,1.17c8.21,8.45,21.64,10.46,32.85,11,11.77.55,24.92-.55,34.55-8a.65.65,0,0,0,.25-.43A1,1,0,0,0,71.49,65.33ZM25.31,12.49a4.53,4.53,0,0,1,3.4-4.16c1.05-.24,2.75.64,3.58,1.17a11.81,11.81,0,0,1,4.1,5.19.74.74,0,0,0,.17.21.68.68,0,0,0,1.2.06,17,17,0,0,1,3.31-4.75c2.35-2.18,7.4-4.55,8.52.6,1,4.57-1.28,9.26-2.49,13.6-2.77-.5-5.71-.2-8.52-.16a54.74,54.74,0,0,0-8.3.37C28.36,21,25.42,16.74,25.31,12.49ZM36.48,72.31A65.92,65.92,0,0,1,5.06,63.05c4.09-6.21,8.06-12.51,12.47-18.51,4-5.45,9.22-10.4,13-16a26.48,26.48,0,0,0,2.82.1c-2.55,4.25-5.14,9.33-6.16,14-.15.66.76,1.38,1.26.74,3.19-4.12,5.52-9.75,7.22-14.79l2.65-.11a53.58,53.58,0,0,0-.11,16.72c.12.83,1.46.78,1.63,0A43.9,43.9,0,0,0,40,28.4c.9,0,1.83.07,2.77.12,1.64,5,3.08,10.35,5.59,14.92.43.78,1.43.2,1.32-.56C49,38,46.63,33,44.31,28.59a18.27,18.27,0,0,0,3.33-.13c6.73,12.76,15.13,24.74,22,37.44A68.85,68.85,0,0,1,36.48,72.31Z"/></svg>