<svg id="Layer_1" data-name="Layer 1" xmlns="http://www.w3.org/2000/svg" viewBox="0 0 183 163"><defs><style>.cls-1{fill:#a1a485;opacity:0.2;}.cls-2{fill:#d3ab90;}</style></defs><title>details</title><path class="cls-1" d="M67.11,81.7c-13.38,6.86-23.64,20.37-24.74,35.36-.43,6,.76,12.43,5.08,16.53,2.7,2.57,6.32,3.93,9.95,4.76,11,2.52,22.67.62,33.84,2.5,8.16,1.37,16.2,4.76,24.4,3.7,12.46-1.62,21.61-13.47,24.09-25.79C148.48,75.29,96.88,66.42,67.11,81.7Z"/><path class="cls-2" d="M78.29,79a20.59,20.59,0,0,0,3.09,3.53c1.57,1.33,5.46,3.07,8.4,2.73a4.66,4.66,0,0,0,1.75-.52,41.33,41.33,0,0,0-2.18,10.66,17.31,17.31,0,0,0,1.09,8.24.65.65,0,0,0,.86.32.42.42,0,0,0,.14-.09.64.64,0,0,0,.18-.77,15.3,15.3,0,0,1-1-7.61,37.23,37.23,0,0,1,.52-4.21,1.75,1.75,0,0,0,.23.56c2.12,3.41,9.28-4.57,10.15-6.34a.34.34,0,0,0,0-.24c0-.18-.31-.18-.49-.13-1.36.36-8.22,2.38-9.7,4.88a40.84,40.84,0,0,1,1.39-5A48.49,48.49,0,0,1,95,79.76a2.82,2.82,0,0,0,2.13,1.46c3.2.74,6.73-.14,9.13-1A44.17,44.17,0,0,0,115.82,75c1.58-1.07,3.2-2.19,4.72-3.43a28,28,0,0,0,3.21-3.05,1.11,1.11,0,0,0-.78-2,32.6,32.6,0,0,0-10,.55,34.65,34.65,0,0,0-15,7.17c.6-1,1.2-2.08,1.8-3.1,1.23-2.1,2.5-4.26,3.65-6.44a56.6,56.6,0,0,0,3.16-7l.14.12c.8.59,2.05.42,3.27-.44,1.45-1,2.85-2.08,4.21-3.19a71.17,71.17,0,0,0,14.27-15.76.63.63,0,0,0,.1-.48,1.26,1.26,0,0,0-.71-.93,2.71,2.71,0,0,0-2.25.26,57.43,57.43,0,0,0-13.82,10.78c-.32.34-.69.71-1.08,1.1-.79.8-1.67,1.68-2.45,2.61a25.11,25.11,0,0,0,.09-9.61c-1-4.88-3.62-9.34-6-13.28a.64.64,0,0,0-.52-.32.65.65,0,0,0-.56.27c-5.5,7.45-4.76,19,1.63,25.67a5,5,0,0,0,2.8,1.72,52.93,52.93,0,0,1-3.45,7.85c-.85,1.59-1.76,3.18-2.66,4.74,0-.11,0-.24,0-.38,0-1.66.37-3.32.23-5A11.75,11.75,0,0,0,96,56.22a34.72,34.72,0,0,0-6.88-4.73L83.09,48c-.93,1-.77,2.52-.38,3.81A23.42,23.42,0,0,0,87.6,60a48.12,48.12,0,0,0,8.64,7.86,16,16,0,0,0,2.44,1.63,2.47,2.47,0,0,0,.48.18l-.49.83a113.16,113.16,0,0,0-5.48,10.14,12.65,12.65,0,0,0-5.3-8c-4.26-2.84-9.52-3-13.18-2.56a1.87,1.87,0,0,0-1.34.63c-.29.4-.47,1.1.33,2.17Zm31-22.66c-.8.56-1.49.65-1.76.45a.28.28,0,0,1-.09-.14,142.33,142.33,0,0,1,14.81-13.81l.28-.22A20.77,20.77,0,0,0,127,38.19l.13,0A70,70,0,0,1,109.27,56.33Zm2.38-6.24c.4-.41.78-.78,1.1-1.13a57.05,57.05,0,0,1,5.35-5,55.06,55.06,0,0,1,8.16-5.55,1.2,1.2,0,0,1,.23-.11,21.9,21.9,0,0,1-4.18,4l-.28.23a143,143,0,0,0-14.7,13.68,2.67,2.67,0,0,1,.16-.84C108.06,53.7,110.05,51.7,111.65,50.09Zm-4.55-7.67a23.82,23.82,0,0,1-.09,9.13c-.78-5.16-1.5-10.38-2.14-15.56A27.23,27.23,0,0,1,107.1,42.42Zm-2.67-7.31c.71,5.76,1.51,11.58,2.38,17.33-.11.52-.24,1-.38,1.56a41.57,41.57,0,0,0-1.35-6.73c-.2-.77-.39-1.52-.56-2.25-.37-1.57-.6-3.19-.82-4.76-.15-1.08-.3-2.21-.51-3.31-.39-2.12-1-4.23-1.54-6.28l.15-.25C102.71,32,103.62,33.51,104.43,35.11Zm-3-4.07c.54,2,1.08,4,1.45,6,.21,1.09.36,2.22.51,3.3.22,1.57.45,3.2.82,4.78.17.73.37,1.49.57,2.26A35.2,35.2,0,0,1,106.15,55h0a1.68,1.68,0,0,1-.62-.13,43,43,0,0,1-3.15-5.92,28.71,28.71,0,0,1-2.14-7,39.53,39.53,0,0,1-.16-8A17.84,17.84,0,0,1,101.42,31Zm-1.74,4.09A34.9,34.9,0,0,0,99.9,42,29,29,0,0,0,102.06,49a46.08,46.08,0,0,0,2.86,5.49,6.92,6.92,0,0,1-1-.9A19.51,19.51,0,0,1,99.68,35.13ZM119,67.66h.92c-1.13.73-2.15,1.5-3.14,2.25a35.29,35.29,0,0,1-4.65,3.17,85.31,85.31,0,0,1-11.5,5.57,5.48,5.48,0,0,1-4.41-.2,3.35,3.35,0,0,1,.18-.46A75.67,75.67,0,0,1,119,67.66Zm-3.89,6.23a43.22,43.22,0,0,1-9.24,5.1c-2.24.81-5.5,1.63-8.4,1-.76-.17-1.19-.46-1.29-.85a1.17,1.17,0,0,1,0-.33,5.76,5.76,0,0,0,4.58.17,85.28,85.28,0,0,0,11.54-5.58,35.68,35.68,0,0,0,4.7-3.2c1.1-.84,2.24-1.7,3.53-2.5q1.08,0,2.16.12A39.9,39.9,0,0,1,115.09,73.89Zm-1.88-5.56a33.43,33.43,0,0,1,4.3-.6,76.21,76.21,0,0,0-20.75,9.6,8.43,8.43,0,0,1,1.32-1.48c.28-.24.56-.48.85-.71A33.39,33.39,0,0,1,113.21,68.33Zm-33.58,3A22.2,22.2,0,0,1,91.42,83.2a2.22,2.22,0,0,1-.45.34c-.71-.85-1.38-1.77-2-2.66A24.81,24.81,0,0,0,85,76.28c-3.34-2.83-6.5-4.46-9.61-5a25.48,25.48,0,0,1,4.12,0A.14.14,0,0,0,79.63,71.37Zm-5.12.15c3.33.31,6.71,2,10.32,5a24.29,24.29,0,0,1,3.86,4.54c.57.8,1.17,1.63,1.8,2.41a22.36,22.36,0,0,1-6.9-3.76A63.65,63.65,0,0,1,74.51,71.52ZM89.64,84c-2.49.29-6-1.22-7.42-2.43a20.43,20.43,0,0,1-2.89-3.32L75.26,72.8A63.85,63.85,0,0,0,83.4,80a22.29,22.29,0,0,0,7,3.81A3.81,3.81,0,0,1,89.64,84ZM87.17,73.71A11.08,11.08,0,0,1,91,78.14c1,2.17,1.29,4,.67,4.8A22.53,22.53,0,0,0,80.41,71.36,15.36,15.36,0,0,1,87.17,73.71Z"/><path class="cls-2" d="M113.3,37.58a3.19,3.19,0,0,0,.44-.46,3.81,3.81,0,0,0,.44-3.5A3.25,3.25,0,0,0,113,31.91a2.37,2.37,0,0,0-2.31-.14,4.22,4.22,0,0,0-2.44,2.76A3.24,3.24,0,0,0,110,38,3.17,3.17,0,0,0,113.3,37.58Zm-3.75-2.82A3,3,0,0,1,111.21,33a1.16,1.16,0,0,1,1.07,0,1.94,1.94,0,0,1,.66,1,2.6,2.6,0,0,1-.23,2.31,1.81,1.81,0,0,1-2.16.48A2,2,0,0,1,109.55,34.76Z"/><path class="cls-2" d="M119,33.89a2.55,2.55,0,0,0,2.46,3.21,3,3,0,0,0,1.92-.68,3.31,3.31,0,0,0,.82-1,2.69,2.69,0,0,0,.29-1.09,2.5,2.5,0,0,0-1.15-2.07,2.92,2.92,0,0,0-2.72-.43A2.77,2.77,0,0,0,119,33.89Zm1.23.88a1.51,1.51,0,0,1,0-.59,1.59,1.59,0,0,1,.84-1.18,1.64,1.64,0,0,1,1.51.31,1.19,1.19,0,0,1,.58,1,1.16,1.16,0,0,1-.15.54,1.78,1.78,0,0,1-1.55,1A1.34,1.34,0,0,1,120.26,34.77Z"/><path class="cls-2" d="M116.37,27a1.74,1.74,0,0,0,1-.34,1.29,1.29,0,0,0,.33-1.26,2.73,2.73,0,0,0-.67-1.18c-1.19-1.35-2.71.75-2.22,2a1.23,1.23,0,0,0,.35.52A1.65,1.65,0,0,0,116.37,27Z"/><path class="cls-2" d="M122.64,19.57a1.45,1.45,0,0,0,1,1.19,1.17,1.17,0,0,0,1.06-.13,1.09,1.09,0,0,0,.29-.35,1.47,1.47,0,0,0-.06-1.55A1.3,1.3,0,0,0,122.64,19.57Z"/></svg>