<svg id="Layer_1" data-name="Layer 1" xmlns="http://www.w3.org/2000/svg" viewBox="0 0 183 163"><defs><style>.cls-1{fill:#a1a485;opacity:0.2;}.cls-2{fill:#d3ab90;}</style></defs><title>gifts</title><path class="cls-1" d="M67.11,85.11C53.73,92,43.47,105.48,42.37,120.48c-.43,5.94.76,12.42,5.08,16.52,2.7,2.57,6.32,3.93,9.95,4.76,11,2.52,22.67.62,33.84,2.5,8.16,1.37,16.2,4.76,24.4,3.7,12.46-1.62,21.61-13.47,24.09-25.79C148.48,78.7,96.88,69.83,67.11,85.11Z"/><path class="cls-2" d="M53.12,49.88a14.17,14.17,0,0,0,5.21,3.57,7.34,7.34,0,0,1-.75.48l-.41.21c-1,.53-2.24,1.18-2.54,2.55a.86.86,0,0,0,.12.68.88.88,0,0,0,.59.39,42.93,42.93,0,0,0,16-.18,13.66,13.66,0,0,0,4.22-1.42,6.29,6.29,0,0,0,3.06-3.63,5,5,0,0,0,.22-1.74,19.79,19.79,0,0,1,7.63,7.93,2.45,2.45,0,0,0-1.24.13c-2.75.89-5.92,3.24-9.4,7-1.36,1.46-3.21,3.72-3.6,6.51a1.89,1.89,0,0,0,.16,1.23,1.49,1.49,0,0,0,.94.72,2.1,2.1,0,0,0,.43.05,2.92,2.92,0,0,0,1.51-.5A32.14,32.14,0,0,0,82,68.1,47,47,0,0,0,85.85,63l.2-.29a8.84,8.84,0,0,0,1.26-2.27,23.78,23.78,0,0,1,2.3,8.25c0,.77-.06,1.53-.08,2.25a203,203,0,0,0,1.77,33.16.9.9,0,0,0,.88.76h.14a.89.89,0,0,0,.74-1A200.17,200.17,0,0,1,91.31,71a73.18,73.18,0,0,1,2.07-16.71c.17.09.34.19.53.27,5.14,2.38,11,2.9,15.15,2.9,1.12,0,2.12,0,3-.08a2.49,2.49,0,0,0,1.35-.4,2,2,0,0,0,.59-2.42,3.86,3.86,0,0,0-1.25-1.48,18.7,18.7,0,0,0-8.17-3.65,19.56,19.56,0,0,0-7.85.14,15.89,15.89,0,0,0-1.92.55c2.26-5.66,5.71-10,9.86-12.32a7.81,7.81,0,0,0,1.17,1.57,11.26,11.26,0,0,0,8.2,3.17,14.6,14.6,0,0,0,2.53-.23c3.58-.63,6.82-2.39,10.1-4.29a1.89,1.89,0,0,0,.86-.84,1.47,1.47,0,0,0-.11-1.43,9.59,9.59,0,0,0,3.19-2.41c1.19-1.48,1.72-3.87.43-5.58a6.16,6.16,0,0,0-1.59-1.38l-.4-.28a2.14,2.14,0,0,1-1-1.23,3.1,3.1,0,0,1,0-.43,3,3,0,0,0-.23-1.28,2.05,2.05,0,0,0-1.3-1.08,9.8,9.8,0,0,0,1-1.09,2.63,2.63,0,0,0,.68-1.61,2.26,2.26,0,0,0-.43-1.33,3.69,3.69,0,0,0-2.08-1.51,5.88,5.88,0,0,0-2.15-.1,27.29,27.29,0,0,0-5.74,1.22,9.54,9.54,0,0,0-.93-1.76,2.08,2.08,0,0,0-1.67-1,2.11,2.11,0,0,0-1.24.53l-5.4,4.2A31,31,0,0,0,103.57,24a9.28,9.28,0,0,0-2,3.71,11.64,11.64,0,0,0-.16,3.79c.11,1.61.42,3.77,1.64,5.18-4.61,2.88-8.35,8-10.58,14.63l-.17.56a1.53,1.53,0,0,0-.13.43,55.14,55.14,0,0,0-2,10.18C88.26,57.2,84.67,52,79.9,49.36a7.38,7.38,0,0,0,1.73-5.31,12,12,0,0,0-2.53-6.92,9.11,9.11,0,0,0-2.65-2.57,11.79,11.79,0,0,0-3.29-1.21,15.48,15.48,0,0,1-2.24-.71,13.77,13.77,0,0,1-2-1.18c-.52-.34-1-.69-1.59-1a5.56,5.56,0,0,0-4.87-.55,1.53,1.53,0,0,0-.79.69,1.6,1.6,0,0,0,0,1.21l.15.46a4.59,4.59,0,0,0-3.59,1.82,6.72,6.72,0,0,0-1.15,2.57l-.16.56a3.7,3.7,0,0,1-.22.62,4,4,0,0,1-.58.28l-.26.12A5.58,5.58,0,0,0,52.69,41a6.43,6.43,0,0,0-.35,2.14l0,.58a2.1,2.1,0,0,1-.6,1.51.93.93,0,0,0-.38.53C50.86,47.69,52.5,49.28,53.12,49.88Zm53-22.57A23.52,23.52,0,0,1,109,23.22a68.81,68.81,0,0,1,5.68-5.9,2.37,2.37,0,0,1,.39-.32c-.8,1.1-1.66,2.21-2.5,3.29-3.72,4.8-7.56,9.76-7.85,15.58a3.2,3.2,0,0,1-.27-.25A14.36,14.36,0,0,1,106.09,27.31Zm9.74-9.59h0c-.48,5.57-4.23,10.45-7.27,14.4a19.27,19.27,0,0,1-2,2.38,4,4,0,0,1-.66.51,6.34,6.34,0,0,0-.65.51c.43-5.53,4.14-10.32,7.74-15,.86-1.11,1.74-2.26,2.57-3.4C115.62,17.34,115.73,17.53,115.83,17.72Zm-2.34,15.49h.05a26.26,26.26,0,0,1,10.67,2.48l.06,0,.16.07.18.09a13.16,13.16,0,0,0-4.84.41c-.68.2-1.35.45-2,.69s-1.12.42-1.68.6a15,15,0,0,1-8.62,0,11.75,11.75,0,0,0,2.5-1.19A15.74,15.74,0,0,0,113.49,33.21Zm2.73,7.32c-3.6.64-7.11-.28-9.13-2.42-.07-.06-.12-.14-.18-.2a15.63,15.63,0,0,0,4.85.78,15,15,0,0,0,4.46-.67c.57-.18,1.15-.39,1.7-.6s1.31-.49,2-.68a12.75,12.75,0,0,1,5.25-.35.2.2,0,0,0,.21-.12l.1,0a2.08,2.08,0,0,1,.24.15C122.46,38.35,119.5,40,116.22,40.53Zm11.75-13,.44.3a4.82,4.82,0,0,1,1.17,1,2.92,2.92,0,0,1-.39,3.39,9.36,9.36,0,0,1-3.27,2.28A15.63,15.63,0,0,0,127,31a3.64,3.64,0,0,0-.05-2,4.36,4.36,0,0,0-1-1.45c-1.58-1.74-1.85-2.74-1.76-3.05a2.78,2.78,0,0,1,.57-.85c.89-.1,1.29,0,1.37.21a1.85,1.85,0,0,1,0,.53,5.48,5.48,0,0,0,0,.7A3.81,3.81,0,0,0,128,27.52Zm-9.61-8.22a25,25,0,0,1,5.29-1.12,4.77,4.77,0,0,1,1.51,0,1.91,1.91,0,0,1,1.07.78.69.69,0,0,1,.14.32,1.59,1.59,0,0,1-.33.57,13.35,13.35,0,0,1-1.21,1.24A8,8,0,0,0,122.5,24c-.35,1.22.35,2.77,2.16,4.75l.12.14a2.5,2.5,0,0,1,.54.72,2.19,2.19,0,0,1,0,1,13.71,13.71,0,0,1-1,3.12,28.08,28.08,0,0,0-9.45-2.28,19.2,19.2,0,0,0,3.33-6.81,12,12,0,0,0,.1-5.3Zm-1.93,5a18.53,18.53,0,0,1-3.72,7.07,15,15,0,0,1-3.7,3.57,6.13,6.13,0,0,1-3.67,1.17,2.48,2.48,0,0,1,.76-.7,6.09,6.09,0,0,0,.72-.56,20.08,20.08,0,0,0,2.11-2.46c2.91-3.79,6.5-8.47,7.25-13.86A9.93,9.93,0,0,1,116.43,24.28Zm-13.19,3.85a7.46,7.46,0,0,1,1.69-3A30.26,30.26,0,0,1,109.59,21L113,18.34c-1.5,1.47-2.94,3-4.3,4.59a25.17,25.17,0,0,0-3,4.17A14.8,14.8,0,0,0,104,35a9.27,9.27,0,0,1-.84-3.58A10.73,10.73,0,0,1,103.24,28.13ZM62.66,49.47c-.87-.25-1.3-1.42-1.44-1.92A8.33,8.33,0,0,1,64,39c.46,1.34.92,2.7,1.4,4a9.88,9.88,0,0,0,1.39,2.83,2.8,2.8,0,0,0,1,.7,14,14,0,0,0-4.4,2.32c-.25.2-.49.43-.73.65Zm1.18-18.09a34.77,34.77,0,0,1,3.32,3A27,27,0,0,0,71.37,38c.54.34,1.1.65,1.65,1a17.08,17.08,0,0,1,2.42,1.49,8.75,8.75,0,0,1,3.23,7.28,6.71,6.71,0,0,0-2.76-3.3,23.65,23.65,0,0,0-2.24-1.26,19.25,19.25,0,0,1-2.52-1.47c-2.25-1.62-3.63-4-5.09-6.51a41.88,41.88,0,0,0-2.36-3.74Zm1.83,4c1.42,2.45,2.89,5,5.22,6.65a20.23,20.23,0,0,0,2.57,1.5,23.81,23.81,0,0,1,2.2,1.24,6.22,6.22,0,0,1,2.73,3.57,2.43,2.43,0,0,1-.32.24L78,48.42a6.46,6.46,0,0,0-4.86-2.54c-.22,0-.45,0-.67,0l-.11,0a9.92,9.92,0,0,1-4.12-1.13,8.35,8.35,0,0,1-1.12-2.33Q65.3,37.31,63.59,32C64.35,33.1,65,34.25,65.67,35.37ZM60.1,55.62c.54-.07,1.1-.14,1.65-.26a50.7,50.7,0,0,0,14.88-5.71A2.68,2.68,0,0,1,75.52,52c-2.07,1.86-5,3-8.91,3.53-1.42.18-2.88.28-4.29.37l-1.24.08-1,.05a13.59,13.59,0,0,0-2.62.24A8.5,8.5,0,0,1,60.1,55.62Zm2.22-3.34a23.39,23.39,0,0,1,2.2-2.06A12.35,12.35,0,0,1,73,47.65a4.81,4.81,0,0,1,3.39,1.62,49.75,49.75,0,0,1-14.74,5.65,14.38,14.38,0,0,1-1.6.25c-.5.07-1,.13-1.48.24A18.35,18.35,0,0,0,62.32,52.28ZM76.86,52a4.61,4.61,0,0,1-2.23,2.59,12.12,12.12,0,0,1-3.69,1.21,41.2,41.2,0,0,1-11.77.64l.9,0c.37,0,.71,0,1,0l1.23-.08c1.42-.09,2.89-.19,4.33-.37,4-.52,7-1.71,9.15-3.64A4.24,4.24,0,0,0,77,50.65,3.17,3.17,0,0,1,76.86,52ZM67.94,33a16.08,16.08,0,0,0,2.26,1.31,15.93,15.93,0,0,0,2.51.81,10.45,10.45,0,0,1,2.82,1,7.64,7.64,0,0,1,2.14,2.1,10.44,10.44,0,0,1,2.18,5.88,6.57,6.57,0,0,1-.72,3.39,9.19,9.19,0,0,0-3.42-7.39,18.71,18.71,0,0,0-2.47-1.53c-.55-.3-1.11-.6-1.63-.94a26.89,26.89,0,0,1-4.14-3.54,36.86,36.86,0,0,0-2.91-2.66,5.83,5.83,0,0,1,1.92.65C67,32.31,67.46,32.63,67.94,33ZM54.08,43.9c0-.21,0-.43,0-.64a4.57,4.57,0,0,1,.22-1.55,3.83,3.83,0,0,1,2.22-1.83l.25-.11a2.44,2.44,0,0,0,1.8-2l.16-.59a5.36,5.36,0,0,1,.83-1.95,2.73,2.73,0,0,1,2.55-1.11.7.7,0,0,0,.25,0c.34,1,.67,2.06,1,3.09a10,10,0,0,0-3.91,10.86,4.85,4.85,0,0,0,1.79,2.73l-.24.24-1,1c-2.14-.2-4-1.75-5.69-3.4-.9-.88-1.33-1.56-1.33-2.12A3.82,3.82,0,0,0,54.08,43.9Z"/><path class="cls-2" d="M86.67,31.8a3.6,3.6,0,0,0-2.36-.69,1,1,0,0,0-.69.49c-.5,1,2.3,7.19,2.33,7.25a33.26,33.26,0,0,0,4.15,6l.23.29a3,3,0,0,0,2.25,1.46,2.64,2.64,0,0,0,.65-.1A2.84,2.84,0,0,0,95,43.62c-.09-2.2-1.62-4.71-2.76-6.41A18.84,18.84,0,0,0,86.67,31.8Z"/></svg>