<svg id="Layer_1" data-name="Layer 1" xmlns="http://www.w3.org/2000/svg" viewBox="0 0 183 163"><defs><style>.cls-1{fill:#a1a485;opacity:0.2;}.cls-2{fill:#d3ab90;}</style></defs><title>landing</title><path class="cls-1" d="M51.61,90.28c-3.92,3.67-7.33,8.28-8,13.6-.81,6.78,3,13.17,6.67,18.89,4.32,6.65,9,13.38,15.68,17.62,8.48,5.38,19.06,6.06,28.38,9.78,3.4,1.36,6.79,3.16,10.45,3.11,4-.06,7.54-2.28,10.75-4.61,6.08-4.41,11.9-9.81,14.35-16.91,3.7-10.72-1.13-22.48-7.13-32.1A46.46,46.46,0,0,0,51.61,90.28Z"/><path class="cls-2" d="M90.41,77.61A33.75,33.75,0,0,0,99,76l2.14-.59c4.14-1.06,9.48-2.06,14.65-3,11-2.06,21.49-4,23.51-7a.7.7,0,0,0,0-.75.69.69,0,0,0-.68-.32c-4.41.61-9,.1-13.44-.39-5-.56-10.23-1.14-15.29-.12h0A34.17,34.17,0,0,0,98.11,69L97,69.73a47,47,0,0,0-4.32,2.89q2.37-4.89,4.85-9.28a12.68,12.68,0,0,0-.74,1.7.71.71,0,0,0,.13.66.61.61,0,0,0,.26.19.66.66,0,0,0,.37,0c8.12-1.24,17.59-9.41,23.89-14.85,2.93-2.52,5.79-5.38,6.89-9.14a.69.69,0,0,0-.23-.73.7.7,0,0,0-.76-.06A206.24,206.24,0,0,0,108.86,52.7l-.68.47c-3.47,2.43-8,5.62-10.36,9.58A117.65,117.65,0,0,1,110.2,44.86a1.63,1.63,0,0,0,.63.47l.09,0a1.54,1.54,0,0,0,1.4-.18c5.21-3.52,9.57-10.69,12.76-15.92l.43-.72a.68.68,0,0,0-1.17-.71h0c-.52.85-2.52,2.39-4.62,4-4.5,3.47-10,7.71-10,11.42-1.56,1.81-3.09,3.72-4.58,5.71,1.56-4.81,2-10.73,2.36-15.63l0-.63c.64-8.65-.5-16.25-3.4-22.61a.7.7,0,0,0-.75-.39.69.69,0,0,0-.56.63,104.18,104.18,0,0,1-2.74,15.34c-1.46,6.28-3,12.77-2.91,19.41,0,1.84.85,8.31,3.27,9.32a1.31,1.31,0,0,0,.32.1,1.66,1.66,0,0,0,.44,0,140.52,140.52,0,0,0-7.17,12.17,68.34,68.34,0,0,0-.26-8.21c0-.46-.06-.84-.08-1.1h0a36.07,36.07,0,0,0-2.36-12,44.3,44.3,0,0,0-4.47-7.64,44.19,44.19,0,0,1-4.34-7.38.69.69,0,0,0-1.29.09,19.61,19.61,0,0,0,.29,11.39,20,20,0,0,1,.89,5.66A49.22,49.22,0,0,0,84.14,61.4c0,.1,2.42,8.61,6.16,10.17a2.82,2.82,0,0,0,1.21.24c-.5,1-1,2.08-1.49,3.15-3.66,7.9-7.18,17.21-5.65,26.39a.67.67,0,0,0,.41.52.71.71,0,0,0,.38,0,.69.69,0,0,0,.56-.79c-1.34-8,1.42-16.3,4.62-23.54Zm8.11-13.29.13,0-.14,0Zm22-14.24C115,54.77,106.15,62.43,98.68,64.3l.14,0a69,69,0,0,0,15.63-10.37c.59-.51,1.16-1,1.74-1.56,1-.93,2.08-1.89,3.17-2.77.54-.45,1.09-.87,1.65-1.3a23.44,23.44,0,0,0,5.13-4.86l.16-.09A22.56,22.56,0,0,1,120.47,50.08ZM109,54.3l.68-.47c5.06-3.56,10.34-6.9,15.73-10A26.24,26.24,0,0,1,120.8,48c-.56.43-1.12.86-1.66,1.3-1.1.89-2.16,1.86-3.18,2.79l-1.73,1.55A68.64,68.64,0,0,1,98.74,63.9C100.83,60,105.47,56.75,109,54.3Zm-2.82-21c-.41,5.58-.92,12.52-3.09,17.4A6.35,6.35,0,0,1,101.55,53l-.75-7.59c-.14-1.48-.29-3-.31-4.52a52.08,52.08,0,0,1,1.88-12.28A77.6,77.6,0,0,0,104,20.4a39,39,0,0,0,.29-6.12,47.37,47.37,0,0,1,1.9,18.34ZM98.59,45.1C98.53,38.63,100,32.21,101.46,26c.94-4.08,1.91-8.26,2.45-12.5a38.26,38.26,0,0,1-.24,6.85A77.34,77.34,0,0,1,102,28.54a52.08,52.08,0,0,0-1.89,12.36c0,1.53.16,3.07.31,4.55l.76,7.73a.34.34,0,0,1-.14,0C99.91,53,98.61,48.23,98.59,45.1Zm17,25.93c-5.19,1-10.56,2-14.74,3l-2.17.59a36,36,0,0,1-7.49,1.54.89.89,0,0,1,.08-.17l.38-.09.2,0a31.07,31.07,0,0,0,6.29-2.41l1.28-.59a73.3,73.3,0,0,1,30.33-6.62h.42a16.63,16.63,0,0,0,4.1-.34c.74,0,1.47,0,2.21,0C132.6,67.85,123.65,69.53,115.58,71Zm9.51-5.74c2.33.25,4.7.52,7.07.63-.66,0-1.34,0-2,0h-.42a73.64,73.64,0,0,0-30.47,6.64l-1.28.6a32.09,32.09,0,0,1-6,2.34A70.32,70.32,0,0,1,122.32,65C123.25,65.08,124.17,65.18,125.09,65.29ZM97.67,70.91l1.19-.74a32.79,32.79,0,0,1,11.36-5h0a36.68,36.68,0,0,1,10.42-.31A70.75,70.75,0,0,0,91.82,75.23,28.6,28.6,0,0,1,97.67,70.91Zm13.89-26.86a.19.19,0,0,1-.19,0l-.07,0a93.22,93.22,0,0,0,6.44-6.91l2.82-3.24C118,37.8,114.93,41.78,111.56,44.05Zm9-11.1,1.15-.9-4.23,4.87c-2,2.29-4.06,4.65-6.31,6.76C110.57,40.65,116.55,36,120.55,33Zm-30.44,13A35.27,35.27,0,0,1,92.36,57.5c0,.27,0,.65.08,1.12.6,7.85.18,10.52-.26,11.39-.08-.67-.18-1.34-.28-2-.15-.92-.3-1.88-.39-2.79-.18-2-.37-4.07-.69-6.11a95.08,95.08,0,0,0-2.63-11.2c-1-3.4-2-6.82-3-10.19l.55.81A44,44,0,0,1,90.11,45.93Zm1.68,24.48-.17,0a3.83,3.83,0,0,1-1.1-1.78c-2.55-6.86-4-14.05-5.43-21.42-.86-4.54-1.69-9.13-2.49-13.69.61,1.1,1.27,2.16,2,3.19,1.12,3.73,2.23,7.51,3.3,11.28a94.25,94.25,0,0,1,2.62,11.15c.31,2,.51,4.1.69,6.09.09.93.24,1.89.39,2.82.12.76.24,1.54.33,2.3ZM85.47,61a48,48,0,0,1-1.65-13.49,20.9,20.9,0,0,0-.94-6,19.2,19.2,0,0,1-.74-8.57c.83,4.77,1.71,9.6,2.61,14.36,1.41,7.38,2.89,14.58,5.44,21.47a5.34,5.34,0,0,0,.86,1.6C88.73,69.71,86.3,64.14,85.47,61Z"/><path class="cls-2" d="M111.44,38.06a1,1,0,0,0,.35.07c.83,0,1.26-.9,1.58-1.81a35.1,35.1,0,0,0,1.37-6.23,55,55,0,0,0,.65-7.58c0-1.46-.77-1.77-1.11-1.84a.68.68,0,0,0-.7.28,17.79,17.79,0,0,0-2,4.44c-1.17,3.54-2.22,7.3-1.2,11C110.52,36.83,110.79,37.78,111.44,38.06ZM114,23a53.41,53.41,0,0,1-.61,6.92,35,35,0,0,1-1.31,6,4.85,4.85,0,0,1-.23.55c0-.1-.08-.24-.13-.4-.91-3.32.09-6.86,1.19-10.2A24.37,24.37,0,0,1,114,23Z"/></svg>