<svg id="Layer_1" data-name="Layer 1" xmlns="http://www.w3.org/2000/svg" viewBox="0 0 183 163"><defs><style>.cls-1{fill:#a1a485;opacity:0.2;}.cls-2{fill:#d3ab90;}</style></defs><title>rsvp</title><path class="cls-1" d="M67.11,85.11C53.73,92,43.47,105.48,42.37,120.48c-.43,5.94.76,12.42,5.08,16.52,2.7,2.57,6.32,3.93,9.95,4.76,11,2.52,22.67.62,33.84,2.5,8.16,1.37,16.2,4.76,24.4,3.7,12.46-1.62,21.61-13.47,24.09-25.79C148.48,78.7,96.88,69.83,67.11,85.11Z"/><path class="cls-2" d="M80.73,29.9a1.4,1.4,0,0,0-2,.06c-2.07,1.68-4.4,3.93-4.92,6.78l-1.14-.53a2.52,2.52,0,0,0-1.62-.3c-.64.14-1.46.68-1.65,2.44C68.67,45,70.36,51,74,54.79a28,28,0,0,0,5,3.89l1.75,1.18c2.27,1.58,4,3.1,4.83,5.41,0,0,0,0,0,.06a17,17,0,0,1,.57,9.57,16,16,0,0,0-1.8-2.1l-.18-.2h0c-4.07-4.24-8.17-8.15-13.58-9.54a.82.82,0,0,0-1,1,13.41,13.41,0,0,0,2.93,5.52,42.66,42.66,0,0,0,5.75,6.6l.1.08c1.85,1.6,4.4,3.52,6.47,3.27a38.94,38.94,0,0,0-1.34,5,22.24,22.24,0,0,0,7.14,20.25c.2.18.41.35.62.52a.82.82,0,0,0,1.16-.13.79.79,0,0,0-.13-1.16A20.57,20.57,0,0,1,85,90.06c2.2.93,5.93-1.52,7-2.31a12.2,12.2,0,0,0,5-7.62.82.82,0,0,0-.28-.78.83.83,0,0,0-.83-.14l-4.31,1.64a20.79,20.79,0,0,0-5.33,2.62h0a8.31,8.31,0,0,0-1,.94,42.46,42.46,0,0,1,1.35-4.85c.28-.89.56-1.77.82-2.67a40.76,40.76,0,0,1,5.1-7.53,19.48,19.48,0,0,1,6.6-5c0,.12,0,.25,0,.39a18.45,18.45,0,0,0,9.7,14.54c1.69.87,3.15.89,4.12,0s1.18-2.59.21-4.62a28.88,28.88,0,0,0-3-5l6.55,1.45a16.09,16.09,0,0,0,2.56.42,1.71,1.71,0,0,0,1.38-.43,1.75,1.75,0,0,0,.43-1,7.27,7.27,0,0,0-1.91-6.06,15.15,15.15,0,0,0,4.91-5.36.83.83,0,0,0-.29-1.09,16.91,16.91,0,0,0-14.57-1.32,21.52,21.52,0,0,0,1-6.11c.13-3.41-.73-5.69-2.57-6.76a.83.83,0,0,0-.78,0,.84.84,0,0,0-.46.62,29.42,29.42,0,0,1-3.6,10.31c-.21.38-.44.75-.66,1.13-1.26,2.1-2.56,4.27-2.53,6.82v0a20.3,20.3,0,0,0-8.3,5.81,33.84,33.84,0,0,0-3,4,18.11,18.11,0,0,0-1-7.27c.15-.46.28-.91.41-1.37a11.5,11.5,0,0,0,4.71-3.27,25,25,0,0,0,5.19-25,1.72,1.72,0,0,0-1-1.12,1.69,1.69,0,0,0-1.64.52c-.12.1-.23.22-.34.32a7.34,7.34,0,0,0-.33-2.9A13.9,13.9,0,0,0,91.63,28c-1.24-1.42-2.27-1.25-2.77-1a2.3,2.3,0,0,0-.92.85c-.24.35-.47.73-.69,1.1l-2.12-2a1.4,1.4,0,0,0-1.66-.42A1.52,1.52,0,0,0,83,27a8.25,8.25,0,0,0-1.51,3.58ZM91.11,86.4c-2,1.42-4.6,2.6-5.51,2.12a1.13,1.13,0,0,1-.28-.21,21.39,21.39,0,0,0,9.27-6A11,11,0,0,1,91.11,86.4Zm-5.42,1.37.42-.41a16.21,16.21,0,0,1,2.51-2.12c.89-.55,1.83-1.07,2.74-1.57s2.13-1.18,3.16-1.85A20.93,20.93,0,0,1,85.69,87.77Zm6.53-5.38,1.52-.57c-.85.52-1.72,1-2.58,1.48s-1.86,1-2.76,1.59a15.71,15.71,0,0,0-2.57,2.17l-.66.62a6.22,6.22,0,0,1,2.14-2.89A19.81,19.81,0,0,1,92.22,82.39Zm20.29-16.85c-.65.19-1.32.36-2,.5a5.64,5.64,0,0,1-1.87,0l1.12-.1C110.68,65.82,111.6,65.68,112.51,65.54Zm-.81,9.95c.23.47.91,2.05.21,2.65s-1.79,0-2.28-.27a16.77,16.77,0,0,1-8.81-13.21c0-.13,0-.24,0-.32a17.52,17.52,0,0,1,2.54,1.32s0,0,0,0a5.38,5.38,0,0,0,1,.65A23.89,23.89,0,0,1,111.7,75.49ZM119.45,70h-.08a15.41,15.41,0,0,1-2.29-.38l-8.59-1.91h-.07a.47.47,0,0,1-.1-.1,7.42,7.42,0,0,0,2.52,0,23.59,23.59,0,0,0,6.9-2.55A5.57,5.57,0,0,1,119.45,70Zm-4.67-5.29c-1.67.31-3.36.59-5.07.77a14.51,14.51,0,0,1-2.95.06,9.55,9.55,0,0,1-1.56-.63l-.39-.28a20.82,20.82,0,0,0,4.54-.44,44.23,44.23,0,0,0,12-4.17A16.59,16.59,0,0,1,114.78,64.73Zm4.12-7.23a17,17,0,0,0-2.3.37,90.17,90.17,0,0,0-9.75,2.79,11.43,11.43,0,0,0,1.4-2h0A15.12,15.12,0,0,1,118.9,57.5Zm-17.61,4.77h0c0-2,1.12-3.86,2.29-5.81.23-.39.46-.77.68-1.16A31.2,31.2,0,0,0,107.79,46a7.61,7.61,0,0,1,.78,4.31,19.23,19.23,0,0,1-1.07,6.13A9.3,9.3,0,0,1,103.91,61a14.86,14.86,0,0,1-1.64.85l-.92.44ZM103,63.39a16.53,16.53,0,0,0,1.81-1,8.72,8.72,0,0,0,1.42-1.1,86.09,86.09,0,0,1,10.49-3.06,10.76,10.76,0,0,1,3.59-.36,13.58,13.58,0,0,1,2,.86l-.32.49a44.05,44.05,0,0,1-12.64,4.54,18.33,18.33,0,0,1-5.17.37c-.42-.25-.84-.51-1.27-.73ZM83.07,73.75h0l.2.2c.6.63,2.13,2.21,2.21,3.17a.78.78,0,0,0,0,.26,6.45,6.45,0,0,1-3.81-1.95l-.08-.08c-2-1.78-4-3.67-5.85-5.63-.6-.63-1.17-1.36-1.77-2.12a28.93,28.93,0,0,0-2.07-2.44C76.11,66.76,79.6,70.13,83.07,73.75ZM79.54,75a41.93,41.93,0,0,1-5.61-6.43c-.5-.65-1-1.35-1.48-2.09.39.46.78.94,1.15,1.41.58.74,1.18,1.51,1.8,2.16,1.87,2,3.84,3.86,5.87,5.65l.09.08a7.45,7.45,0,0,0,3.68,2C84.44,78,83,77.91,79.54,75Zm5.67-38.91A10.12,10.12,0,0,1,87.78,39c1,2,.48,4.46-.19,7-.27.74-.5,1.49-.7,2.24A20.92,20.92,0,0,0,86,46.27a15,15,0,0,0-.72-1.33,15.85,15.85,0,0,0-2.19-6.79c-.3-.55-.59-1.07-.88-1.57a15,15,0,0,1-2.1-5Zm10.51.29q.14,2.08.15,4.17a32.55,32.55,0,0,1-.72,7.6A21.91,21.91,0,0,1,89,58.88c2-3.24,3.25-7.85,4.14-11.67.24-1.05.47-2.08.69-3.11C94.39,41.46,95,39,95.7,36.36ZM93.41,44c-.23,1-.45,2.06-.7,3.11-.89,3.86-2.15,8.53-4.2,11.72a25.3,25.3,0,0,0-.61-7.36h0a26.53,26.53,0,0,1,1.26-5v0a26.69,26.69,0,0,1,5.94-9.51C94.45,39.3,93.94,41.6,93.41,44ZM79.34,39.38A7.56,7.56,0,0,1,79,37.32c-.14-2.1-.19-4.11.75-5.66a15.57,15.57,0,0,0,2.16,5.12c.29.51.58,1,.87,1.57a17,17,0,0,1,2.11,5.85,13.56,13.56,0,0,0-1.58-2A15.8,15.8,0,0,0,79.34,39.38Zm-.08-7.72c-.88,1.62-.84,3.61-.69,5.69a9.55,9.55,0,0,0,.25,1.76c-.75-.39-1.51-.74-2.23-1.08l-1.23-.56C75.57,35.16,77.45,33.19,79.26,31.66ZM81.77,58.5c-.59-.41-1.18-.8-1.78-1.2a26.65,26.65,0,0,1-4.77-3.66c-3.32-3.44-4.85-9-4.19-15.12.08-.71.27-1,.36-1a1.35,1.35,0,0,1,.56.18l3.94,1.83a23.25,23.25,0,0,1,5.62,3.26l.6.57A13.75,13.75,0,0,1,84.56,47a23.27,23.27,0,0,1,1.68,15.76A15.63,15.63,0,0,0,81.77,58.5Zm9.46.72a11.53,11.53,0,0,1-3.06,2.44c.1-.58.18-1.16.25-1.74a22.29,22.29,0,0,0,7.13-11.71,32.43,32.43,0,0,0,.73-7.71c0-1.5-.07-3-.19-4.52h0A23.28,23.28,0,0,1,91.23,59.22Zm-.85-30.14a12.31,12.31,0,0,1,2.4,3.65,7.2,7.2,0,0,1-.36,4.74A28.69,28.69,0,0,0,90,40.94a7.07,7.07,0,0,0-.7-2.71,11.48,11.48,0,0,0-3-3.42L85.43,34A11,11,0,0,0,88.3,30.4c.32-.56.64-1.11,1-1.63a1.18,1.18,0,0,1,.25-.29C89.61,28.45,89.92,28.54,90.38,29.08ZM83,31.82a6.69,6.69,0,0,1,1.07-3.64l2.31,2.22a6.69,6.69,0,0,1-2.25,2.5l-1.15-1A.14.14,0,0,0,83,31.82Z"/></svg>