<svg id="Layer_1" data-name="Layer 1" xmlns="http://www.w3.org/2000/svg" viewBox="0 0 183 163"><defs><style>.cls-1{fill:#a1a485;opacity:0.2;}.cls-2{fill:#d3ab90;}</style></defs><title>transport</title><path class="cls-1" d="M67.11,94.24c-13.38,6.87-23.64,20.37-24.74,35.37-.43,5.94.76,12.42,5.08,16.53,2.7,2.56,6.32,3.93,9.95,4.76,11,2.52,22.67.61,33.84,2.49,8.16,1.38,16.2,4.77,24.4,3.7,12.46-1.61,21.61-13.47,24.09-25.78C148.48,87.84,96.88,79,67.11,94.24Z"/><path class="cls-2" d="M93.57,79.6l.07-.25a48.5,48.5,0,0,0,7-6.65,6,6,0,0,0,2.63,2.07,12.82,12.82,0,0,0,4,.91,10.83,10.83,0,0,0,2.42-.15,4.9,4.9,0,0,0,3.75-2.42,4.23,4.23,0,0,0-1.62-5.19,6.6,6.6,0,0,0-5.12-.7,15.61,15.61,0,0,0-2.6.89,47.31,47.31,0,0,0,3.58-6.36,6.19,6.19,0,0,0,.26.61,6.47,6.47,0,0,0,1.17,1.6,6.25,6.25,0,0,0,4,1.76,5.76,5.76,0,0,0,1.1,0,6.21,6.21,0,0,0,4.48-3,4.27,4.27,0,0,0-.22-4.89,4.55,4.55,0,0,0-2.1-1.25,9.2,9.2,0,0,0-6.6.44l-.25.11a46.66,46.66,0,0,0,1.52-5.54,3.7,3.7,0,0,0,2.22.9h.25a5.54,5.54,0,0,0,2.63-.59,4.22,4.22,0,0,0,2-2.85,3.89,3.89,0,0,0-.42-2.75,3,3,0,0,0-2.66-1.48,3.77,3.77,0,0,0-1.79.68,15.88,15.88,0,0,0-1.44,1.07c0-.3.07-.61.1-.91a2.94,2.94,0,0,0,.65-2.73c-.48-1.59-3-3.82-5-3.39a2.76,2.76,0,0,0-2,2.8,5.15,5.15,0,0,0,1,2.7,3.84,3.84,0,0,0,2.43,1.85l.26,0a2.91,2.91,0,0,0,.51,0,47.67,47.67,0,0,1-1,5.75,8.42,8.42,0,0,0-1.06-1.81,4.26,4.26,0,0,0-1.31-1.17,2.53,2.53,0,0,0-2.14-.15,2.63,2.63,0,0,0-1,.78,5.73,5.73,0,0,0-1,3.34,6.4,6.4,0,0,0,.24,2.7c.62,1.63,2.24,2.48,3.31,3a4.24,4.24,0,0,0,.61.27,44.23,44.23,0,0,1-2.29,4.63,4.43,4.43,0,0,0-1.41-3.49,3,3,0,0,0-4.07.11A3.21,3.21,0,0,0,98,62.09a11.27,11.27,0,0,0-.31,4.12,4.13,4.13,0,0,0,.42,1.92,3.32,3.32,0,0,0,2.38,1.56,44.9,44.9,0,0,1-6,6.31,96.36,96.36,0,0,0,2.88-13.64,57.89,57.89,0,0,0,.22-11.62,2.62,2.62,0,0,0,2.57-.07c.66-.4,1.31-.8,1.93-1.24a5.85,5.85,0,0,0,2.07-2.3,3.8,3.8,0,0,0-.64-4.1,3.5,3.5,0,0,0-4.15-.73,5.11,5.11,0,0,0-1.81,1.83l0,0-.42.67c-.08.12-.15.24-.23.35a58.28,58.28,0,0,0-2.19-8.6,5.64,5.64,0,0,0,.91.18l.21,0a4.2,4.2,0,0,0,1.7-.29,4.3,4.3,0,0,0,1.83-1.25,3.94,3.94,0,0,0,.72-3.3,5.15,5.15,0,0,0-1.62-2.7,3.31,3.31,0,0,0-3.21-1,3.75,3.75,0,0,0-1.94,1.77h0a9.47,9.47,0,0,0-.65,1.26c-.51-1.13-1-2.26-1.63-3.37a8.11,8.11,0,0,0,1.54-.86,7.11,7.11,0,0,0,2.26-2.56,4.44,4.44,0,0,0,.34-3.59,2.91,2.91,0,0,0-3.55-1.79,3.85,3.85,0,0,0-1.27.84,5.49,5.49,0,0,0-1.32,1.67s-.08.22-.16.51a9.12,9.12,0,0,0-.86-2.38A6.68,6.68,0,0,0,86.58,18a5.78,5.78,0,0,0-3.35-1.62,3.34,3.34,0,0,0-3.55,2.15c-.44,1.35.13,2.88,1.57,4.19a13.69,13.69,0,0,0,3.14,2.1,4.26,4.26,0,0,0-2.09.71A3,3,0,0,0,81.08,29a3.07,3.07,0,0,0,1,1.28,4.46,4.46,0,0,0,2.54.9,6.07,6.07,0,0,0,.85,0c.13,0,3-.31,4.21-1.61q1.15,2.27,2.1,4.62a9.17,9.17,0,0,0-3.09-1,3.37,3.37,0,0,0-2.24.4,3.55,3.55,0,0,0-1.3,1.72A3,3,0,0,0,84.88,37a3.26,3.26,0,0,0,1,1.7,6.06,6.06,0,0,0,3.81,2.23h.33a5.36,5.36,0,0,0,3.46-1.7,57.06,57.06,0,0,1,1.53,6.58,8.05,8.05,0,0,0-1.64-1.47,5.4,5.4,0,0,0-3.8-.72,4,4,0,0,0-3.07,2.74,4.27,4.27,0,0,0,1.81,4.46,4.69,4.69,0,0,0,2.42.87,3.84,3.84,0,0,0,1.07-.09,5.94,5.94,0,0,0,.9-.3c.14-.05.29-.11.44-.15a7,7,0,0,1,.93-.21,7.78,7.78,0,0,0,1.54-.4h0c.13,1.57.2,3.14.21,4.72a6.05,6.05,0,0,0-2.21-1.66,5.25,5.25,0,0,0-4.66.21c-1.71,1-2.79,3.07-3,5.72a3.37,3.37,0,0,0,.2,1.58,3.05,3.05,0,0,0,1.45,1.46,5.27,5.27,0,0,0,2.23.61,5.36,5.36,0,0,0,3-.72A8.86,8.86,0,0,0,94,61.65,7.16,7.16,0,0,1,95,61l.52-.26.07,0c0,.48-.08,1-.14,1.45a114.68,114.68,0,0,1-3.81,16.94c-.72,2.58-1.44,5.16-2.07,7.76-.07.28-.14.58-.21.87a34.46,34.46,0,0,0-6-12.69c-.51-.66-1-1.26-1.55-1.83h0A4.46,4.46,0,0,0,85,66.43a3.34,3.34,0,0,0-2.4-1.27,3.26,3.26,0,0,0-3.4,2.34,5.12,5.12,0,0,0-.14,2.89,18.52,18.52,0,0,1-4-5,4.46,4.46,0,0,0,2.65-1,5,5,0,0,0,1.52-1.58,5.67,5.67,0,0,0,.22-4.16,2.74,2.74,0,0,0-1.34-1.95,2.4,2.4,0,0,0-2.5.47,6.29,6.29,0,0,0-1.49,2c-.12.24-.29.51-.47.8a12.14,12.14,0,0,0-1.1,2.08A13,13,0,0,0,70,60.9a7.66,7.66,0,0,0-3.69-.3,5.26,5.26,0,0,0-3.36,2,3.06,3.06,0,0,0-.59,2.48,3.73,3.73,0,0,0,2.36,2.31,15,15,0,0,0,2.79.87,7.52,7.52,0,0,0,1.17.16A3.81,3.81,0,0,0,70.93,68a5.47,5.47,0,0,0,.92-.73,2.05,2.05,0,0,1,.87-.58,3.8,3.8,0,0,0,.51-.16l.16-.09a22.19,22.19,0,0,0,4.74,5.84c.11.11.22.23.34.34a16.21,16.21,0,0,0-7.35,1.35h0a6.79,6.79,0,0,0-2.7,2,3.62,3.62,0,0,0-.5,3.73,4.28,4.28,0,0,0,2.81,2.07,10.73,10.73,0,0,0,2.51.46,8.19,8.19,0,0,0,4.68-1.09c.38-.23.74-.5,1.1-.77s.52-.38.79-.56a5.68,5.68,0,0,1,1-.45A4,4,0,0,0,83,77.92a32.78,32.78,0,0,1,5.23,14.76,1.09,1.09,0,0,0,.08.31c-1,5.89-1.45,12.92.47,19.58a1,1,0,0,0,.9.72,1.24,1.24,0,0,0,.33,0,1,1,0,0,0,.68-1.23c-2-6.74-1.69-14.37.85-24.72C92.15,84.72,92.86,82.16,93.57,79.6Zm20.51-21.52a6.61,6.61,0,0,1,1.72.31h0a2.66,2.66,0,0,1,1.22.68,2.36,2.36,0,0,1,0,2.59,4.11,4.11,0,0,1-6.48.89,4,4,0,0,1-.8-1.1,2.36,2.36,0,0,1-.4-1.66c.12-.35.57-.7,1.32-1A7.34,7.34,0,0,1,114.08,58.08Zm1.21-11.35a1.07,1.07,0,0,1,.77.51,1.94,1.94,0,0,1,.17,1.35,2.22,2.22,0,0,1-1,1.51,3.74,3.74,0,0,1-1.7.33,1.77,1.77,0,0,1-1.24-.51.74.74,0,0,1-.19-.65c0-.29.7-1.11,2.32-2.18h0a1.79,1.79,0,0,1,.81-.35ZM106.8,57.54a4.65,4.65,0,0,1-2.38-2,4.76,4.76,0,0,1-.12-1.87,4.08,4.08,0,0,1,.56-2.22.75.75,0,0,1,.22-.2.31.31,0,0,1,.14,0,.61.61,0,0,1,.3.09,2.22,2.22,0,0,1,.67.63h0a6.17,6.17,0,0,1,1,5.73A1.57,1.57,0,0,1,106.8,57.54Zm-5.66,10.24a1.69,1.69,0,0,1-1.27-.61,2.57,2.57,0,0,1-.17-1,9.78,9.78,0,0,1,.22-3.43,1.5,1.5,0,0,1,.26-.54.76.76,0,0,1,.61-.2,1.32,1.32,0,0,1,.71.27c.66.56.71,1.4.72,2.71v.65c0,1.32,0,2-.6,2.19A1.5,1.5,0,0,1,101.14,67.78Zm9.59,1.8a2.29,2.29,0,0,1,1,2.65,3.32,3.32,0,0,1-2.33,1.35,9.86,9.86,0,0,1-5.36-.66c-.75-.29-1.71-1-1.81-1.56,0-.07,0-.18.17-.38a3.31,3.31,0,0,1,1-.44,6.21,6.21,0,0,0,.7-.25l.23-.1a16.7,16.7,0,0,1,2.86-1A4.74,4.74,0,0,1,110.73,69.58Zm-1.35-24.72c-.32,0-.68-.38-1.1-1a3.35,3.35,0,0,1-.68-1.64c0-.37.2-.76.44-.81.74-.17,2.41,1.11,2.69,2a1.08,1.08,0,0,1-.31.91A1.29,1.29,0,0,1,109.38,44.86Zm-9-.81a1.55,1.55,0,0,1,1.77.33,1.84,1.84,0,0,1,.28,1.94A4,4,0,0,1,101,47.81c-.59.42-1.2.79-1.82,1.17-.37.22-1-.1-1.6-.63l.21-.54a11.64,11.64,0,0,1,1.06-1.91l.43-.68A3.35,3.35,0,0,1,100.37,44.05ZM95.91,30.17a1.57,1.57,0,0,1,1.27.53,3.24,3.24,0,0,1,1,1.67A1.93,1.93,0,0,1,97.88,34a2.19,2.19,0,0,1-1,.65,2.07,2.07,0,0,1-1,.16c-.58-.07-1.34-.25-1.59-.76s0-1.72.75-3C95.31,30.69,95.6,30.27,95.91,30.17Zm-8.58,7.1c-.18-.19-.47-.47-.5-.66A1.39,1.39,0,0,1,87,36a1.79,1.79,0,0,1,.52-.79,1.31,1.31,0,0,1,.75-.12l.21,0h0c1.48.16,3.4,1.08,3.78,2.14a.52.52,0,0,1-.11.49A3.27,3.27,0,0,1,90,38.91C89.08,39,88.17,38.12,87.33,37.27Zm2.17,11.9a2.32,2.32,0,0,1-1-2.31A2.07,2.07,0,0,1,90,45.53a3.07,3.07,0,0,1,.68-.05,3.81,3.81,0,0,1,1.72.55,11.26,11.26,0,0,1,1.67,1.62c.29.32.59.65.91,1l-.1,0a5.74,5.74,0,0,1-1.14.29,9.4,9.4,0,0,0-1.17.26l-.55.2a5.17,5.17,0,0,1-.63.21A2.49,2.49,0,0,1,89.5,49.17Zm1.39-26.69a3.86,3.86,0,0,1,.87-1,2.08,2.08,0,0,1,.59-.43,1,1,0,0,1,1,.64,2.52,2.52,0,0,1-.26,2,5,5,0,0,1-1.62,1.82,12.23,12.23,0,0,1-1.26.75,14.65,14.65,0,0,1,.65-3.71l-.9-.41Zm-8.3-1.22c-.64-.58-1.24-1.44-1-2.1a1.47,1.47,0,0,1,1.46-.8h0a4,4,0,0,1,2.2,1.14,4.74,4.74,0,0,1,1.06,1.24c.56,1,.84,2.39.61,2.67C85.83,23.59,83.88,22.43,82.59,21.26Zm.7,7.42a1,1,0,0,1-.35-.42,1.06,1.06,0,0,1,.49-1.09,3.23,3.23,0,0,1,1.89-.4h.13a3.41,3.41,0,0,1,1.46.34,3.35,3.35,0,0,1,1.34,1,5.63,5.63,0,0,1-3,1A2.76,2.76,0,0,1,83.29,28.68Zm5.34,32.1a1.18,1.18,0,0,1-.55-.49,1.76,1.76,0,0,1,0-.68c.06-.93.36-3.2,2-4.12a3,3,0,0,1,1.69-.38,3.34,3.34,0,0,1,1.19.28h0A5.51,5.51,0,0,1,95.38,58a2.5,2.5,0,0,1,.18.39,3.78,3.78,0,0,1-.87.5l-.59.29a9.1,9.1,0,0,0-1.29.88,8.37,8.37,0,0,1-.85.62A3.46,3.46,0,0,1,88.63,60.78Zm-7.56,7.4a1.33,1.33,0,0,1,1.38-1h0a1.33,1.33,0,0,1,1,.51,2,2,0,0,1-.3,2.68c-1,1-1.16,1-1.47.72A2.67,2.67,0,0,1,81.07,68.18Zm-5.69-7.1c.2-.32.39-.63.54-.91a4.58,4.58,0,0,1,1-1.43.85.85,0,0,1,.4-.2s.12.11.26.64a4,4,0,0,1,0,2.69,3.08,3.08,0,0,1-.94,1,2.42,2.42,0,0,1-1.62.59c-.18,0-.38-.15-.54-.49a.85.85,0,0,0,0-.17A11.23,11.23,0,0,1,75.38,61.08Zm-7.44,5.27a13.86,13.86,0,0,1-2.42-.76c-.9-.38-1.15-.72-1.2-.94a1.16,1.16,0,0,1,.28-.86,3.24,3.24,0,0,1,2.1-1.24,4.93,4.93,0,0,1,1.1-.07,7.44,7.44,0,0,1,1.65.31,10.57,10.57,0,0,1,3,1.67l.09.08a.64.64,0,0,1,0,.07l-.3.12-.33.09a3.84,3.84,0,0,0-1.43,1,3.82,3.82,0,0,1-.57.48A2.84,2.84,0,0,1,67.94,66.35ZM77.83,78.7a10.53,10.53,0,0,1-.94.66,6.87,6.87,0,0,1-5.57.44,2.53,2.53,0,0,1-1.62-1,1.69,1.69,0,0,1,.3-1.66,4.69,4.69,0,0,1,1.92-1.33c2.41-1.06,6-1.71,8.44-.76a1.67,1.67,0,0,1,1,1.45c.05.4.07.52-1.16,1a6.88,6.88,0,0,0-1.45.65C78.43,78.26,78.13,78.48,77.83,78.7Z"/><path class="cls-2" d="M66.2,53.46A2.08,2.08,0,0,0,64.6,55a2.33,2.33,0,0,0,.57,2,7.34,7.34,0,0,0,4.35,2.43l.25,0a3,3,0,0,0,2.1-.63,1.69,1.69,0,0,0,.64-1.7c-.4-1.89-4.13-3.38-4.62-3.52A3.56,3.56,0,0,0,66.2,53.46Zm.44,1.94a1.65,1.65,0,0,1,.73.08,9.11,9.11,0,0,1,3.1,1.85,1.48,1.48,0,0,1-.73.09,5.47,5.47,0,0,1-3-1.67c-.19-.25-.2-.36-.1-.35Z"/><path class="cls-2" d="M74.11,51.63a3.65,3.65,0,0,0-.24-3.85A2.16,2.16,0,0,0,73,47a2,2,0,0,0-2.18.46A3.34,3.34,0,0,0,70,49c-.75,2.35-.59,3.83.48,4.39a1.56,1.56,0,0,0,.71.2A3.84,3.84,0,0,0,74.11,51.63Zm-2.24-2.08h0a.9.9,0,0,1,.4-.6,1.69,1.69,0,0,1,.11,1.72,3.78,3.78,0,0,1-.88.86A5.94,5.94,0,0,1,71.87,49.55Z"/><path class="cls-2" d="M113.1,41.43a2.15,2.15,0,0,0,.9.24,5.55,5.55,0,0,0,3.25-1.26,3.86,3.86,0,0,0,1.5-3.71,3.13,3.13,0,0,0-1.41-2,2.72,2.72,0,0,0-2.12-.35,3.53,3.53,0,0,0-2,1.66,7.09,7.09,0,0,0-1.08,3.22A2.09,2.09,0,0,0,113.1,41.43Zm2.63-5.16a.78.78,0,0,1,.57.12,1.09,1.09,0,0,1,.5.7,1.93,1.93,0,0,1-.78,1.77,4.73,4.73,0,0,1-1.9.89s-.07.23,0-.36a5,5,0,0,1,.78-2.32A1.73,1.73,0,0,1,115.73,36.27Z"/><path class="cls-2" d="M110.44,32.65a3.79,3.79,0,0,0-2.65-2h0a2.66,2.66,0,0,0-1.47.08,1.94,1.94,0,0,0-1.26,1.38,2.44,2.44,0,0,0,.35,1.71l.9,1.7a5.46,5.46,0,0,0,.87,1.3,2.59,2.59,0,0,0,1.63.77h.32a1.72,1.72,0,0,0,1-.43,1.86,1.86,0,0,0,.41-.59A4.48,4.48,0,0,0,110.44,32.65Zm-1.85,2.74a3.68,3.68,0,0,1-.52-.83l-.9-1.69a2.36,2.36,0,0,0-.17-.31.8.8,0,0,1,.42,0,1.79,1.79,0,0,1,1.25,1,2.45,2.45,0,0,1,.12,2A.73.73,0,0,1,108.59,35.39Z"/><path class="cls-2" d="M91.1,14A4.44,4.44,0,0,0,91,10.81a2.34,2.34,0,0,0-1.82-1.52,2.26,2.26,0,0,0-1.22.25,3.09,3.09,0,0,0-1.54,2.65c0,1,.32,2.77,1.53,3.39a2,2,0,0,0,.76.2,2.38,2.38,0,0,0,1.64-.61A2.46,2.46,0,0,0,91.1,14Zm-2.72-1.7h0a1.21,1.21,0,0,1,.52-1,.76.76,0,0,1,.25.34,2.43,2.43,0,0,1,.07,1.74.71.71,0,0,1-.14.28c-.17.14-.28.18-.25.19A2.23,2.23,0,0,1,88.38,12.28Z"/><path class="cls-2" d="M83.78,11.73a1.72,1.72,0,0,0-.16-1.11,3.24,3.24,0,0,1-.13-1,3.52,3.52,0,0,0-.71-2.41C82,6.22,80.15,5.21,78.85,6a2.47,2.47,0,0,0-1.07,2.5A4.4,4.4,0,0,0,79,10.92a11.62,11.62,0,0,0,1.86,1.47,2.59,2.59,0,0,0,1.18.49h.09A1.54,1.54,0,0,0,83.78,11.73ZM80.47,9.54a2.49,2.49,0,0,1-.72-1.33.68.68,0,0,1,.1-.52,2.24,2.24,0,0,1,1.43.77,2,2,0,0,1,.23,1.17,5.72,5.72,0,0,0,0,.8A6.82,6.82,0,0,1,80.47,9.54Z"/></svg>