<svg id="Layer_1" data-name="Layer 1" xmlns="http://www.w3.org/2000/svg" viewBox="0 0 183 163"><defs><style>.cls-1{fill:#a1a485;opacity:0.2;}.cls-2{fill:#d3ab90;}</style></defs><title>when</title><path class="cls-1" d="M67.11,67.35c-13.38,6.86-23.64,20.37-24.74,35.36-.43,6,.76,12.43,5.08,16.53,2.7,2.57,6.32,3.93,9.95,4.76,11,2.52,22.67.62,33.84,2.5,8.16,1.37,16.2,4.76,24.4,3.7,12.46-1.62,21.61-13.48,24.09-25.79C148.48,60.94,96.88,52.07,67.11,67.35Z"/><path class="cls-2" d="M135.12,64.29a36,36,0,0,0-16.31-3.89,24.37,24.37,0,0,1,9.91-2.73,2.64,2.64,0,0,0,1.22-.26,2.48,2.48,0,0,0,1-2.79c-.79-4.73-5.4-8.53-10.73-8.84-4.38-.27-9.16,1.71-13.09,5.39l-.21.21a75,75,0,0,1,4.7-9.84l.26-.46c1.28-2.29,2.73-4.89,2.28-7.71a.83.83,0,0,0-.43-.61.81.81,0,0,0-.74,0A33.81,33.81,0,0,0,100.05,43c0-.19,0-.37-.06-.57-.22-2-.49-4-.79-6.06a8.56,8.56,0,0,0-.84-3,1.36,1.36,0,0,0-1.31-.83,1.41,1.41,0,0,0-.94.53,16,16,0,0,0-2.76,4.22l-.6-1.09a.85.85,0,0,0-.71-.43.87.87,0,0,0-.73.4,18.36,18.36,0,0,0-2.47,6.06c-.17-.27-.34-.55-.52-.82a74.07,74.07,0,0,0-6.16-7.69,1.7,1.7,0,0,0-1-.65,1.31,1.31,0,0,0-1.14.38,2.41,2.41,0,0,0-.45,2.05,92.68,92.68,0,0,0,4.58,17c-4.86-4.09-10.52-7.16-16-10a2.06,2.06,0,0,0-2.46,0,2,2,0,0,0-.59,1.24c-.42,2.91,1.34,5.5,3.11,7.64A87.53,87.53,0,0,0,79,61.84a60.1,60.1,0,0,0-20-1.71c-2.26.13-3.61.89-4,2.25-.54,1.83.95,3.46,4,4.36A65.35,65.35,0,0,1,69.81,71.5c2.46,1.25,5,2.54,7.59,3.6a48.74,48.74,0,0,0,8.8,2.64,18.65,18.65,0,0,0,3.54.34c2.62,0,5.35-.56,6.3-2.3a3,3,0,0,0,.26-.7,9.46,9.46,0,0,0,4.63,1.09c.38,0,.78,0,1.19-.06a32.88,32.88,0,0,0,9.33-2.73c1.29-.52,2.61-1,3.93-1.5a36,36,0,0,1,21.34-.46,2.15,2.15,0,0,0,2.23-.33,1.91,1.91,0,0,0,.46-1.14C139.63,67.82,138.1,65.81,135.12,64.29Zm2.5,4.52a28.33,28.33,0,0,0-14.74-1.76,67.73,67.73,0,0,0-15,4.11l-.08,0c-3.06,1.13-6.21,2.29-9.32,2a9,9,0,0,0,1.14-.39c3.13-.32,6.89-2,10.86-3.79,3.61-1.62,7.34-3.3,10.61-3.89a34.08,34.08,0,0,1,6.59-.45,20,20,0,0,1,6.19.87l.51.25C135.45,66.35,137.14,67.41,137.62,68.81Zm-6-4.25a26.55,26.55,0,0,0-4-.31,34.09,34.09,0,0,0-6.67.46c-3.32.59-7.07,2.28-10.7,3.92A50.87,50.87,0,0,1,101,72.15a40,40,0,0,0,5.2-3.45l1.33-1c2.59-1.9,5.22-3.82,7.93-5.47A34.27,34.27,0,0,1,131.63,64.56ZM108.27,52.4c3.6-3.36,7.92-5.18,11.85-4.94,4.48.26,8.51,3.53,9.16,7.43.09.55,0,1-.13,1a1.6,1.6,0,0,1-.53.07c-8.35.3-15.33,5.42-22.09,10.37l-1.34,1c-2,1.54-6.85,5.12-9,4.29a.51.51,0,0,1-.35-.33c-.4-1.35,2.27-5,3.4-6.61.43-.58.77-1.06,1-1.38C102.52,59.47,105,55.5,108.27,52.4Zm-16,16.16a30.59,30.59,0,0,0-4.37-6c-1.19-1.32-2.5-2.56-3.66-3.66-5.26-5-10.08-9.44-14.68-13.63C74.69,48,79.94,51,84.31,55a29.46,29.46,0,0,1,9.22,14.72C93.11,69.31,92.68,68.93,92.24,68.56ZM111.9,37.28a80.74,80.74,0,0,0-6.28,9.56A152.57,152.57,0,0,0,98,63.53l-.14.19c-.56.78-1.11,1.55-1.61,2.3a56.3,56.3,0,0,1,1.47-6.23c1.63-5.15,4.58-9.88,7.54-14.22,2.33-3.43,4.81-6.85,7.23-10.16A8.86,8.86,0,0,1,111.9,37.28Zm-1.76,3.44c-2.14,3.86-4.72,8.88-5.92,13.6a67.81,67.81,0,0,0-5.06,7.41A136.44,136.44,0,0,1,106,47.05a78.27,78.27,0,0,1,5-7.79c-.18.34-.37.67-.55,1Zm2.14-5.78c-2.47,3.39-5,6.88-7.4,10.39-3,4.37-5.95,9.13-7.59,14.34A62.45,62.45,0,0,0,95.61,67c-.27.44-.51.86-.72,1.28-.11-.39-.23-.78-.36-1.18a.58.58,0,0,0,0-.23,34.74,34.74,0,0,1,2.38-14.94h0a32.62,32.62,0,0,1,15.33-17ZM97.06,34.6a9.19,9.19,0,0,1,.48,2.06c.29,2,.55,4,.78,6a7,7,0,0,1,0,2.8.92.92,0,0,0,0,.16c-.19.3-.38.6-.56.91s-.36.64-.54,1a19.38,19.38,0,0,0-.92-4A31.3,31.3,0,0,0,94.4,39.3,14.3,14.3,0,0,1,97.06,34.6ZM94.65,44a14.21,14.21,0,0,1,.72,7.27A37.3,37.3,0,0,0,94,55.5c-.19-1-.41-2-.68-3A20,20,0,0,0,92.68,47c-.12-.56-.24-1.11-.34-1.67a30.68,30.68,0,0,1-.5-6.63l.16-.34A36.8,36.8,0,0,1,94.65,44ZM91.4,39.7a31.59,31.59,0,0,0,.52,5.74c.11.56.22,1.12.34,1.67a26.08,26.08,0,0,1,.64,4,37.88,37.88,0,0,0-2.71-6.51A17.22,17.22,0,0,1,91.4,39.7ZM81.19,35.23a71.14,71.14,0,0,1,5.73,7.17c.57.86,1.1,1.76,1.6,2.67a.9.9,0,0,0,.17.32A37,37,0,0,1,93,61.21s0,0,0,0c-.06.63-.11,1.28-.13,1.92a33.59,33.59,0,0,0-5.62-7.7C84,49,82.42,41.63,81.19,35.24ZM66.82,43.94a1.56,1.56,0,0,1,.58.21l.68.35C73,49,78.21,53.81,83.92,59.2c1.15,1.09,2.46,2.33,3.63,3.63a31.53,31.53,0,0,1,3.81,5c-.6-.47-1.2-.9-1.82-1.3-.32-.34-.63-.69-.93-1l-.94-1A63.31,63.31,0,0,0,83,60.09L75,53c-3-2.63-6-5.35-8.16-8.77l0,0h0A1.9,1.9,0,0,0,66.82,43.94Zm2.71,6.53c-1.38-1.67-2.74-3.62-2.78-5.63a43.48,43.48,0,0,0,7.94,8.42l8.07,7.14c1.55,1.38,3.15,2.8,4.6,4.36l.87,1a37.93,37.93,0,0,0-4.66-2.31C80.6,61.09,73.53,55.34,69.53,50.47ZM59.06,61.81c1.72-.1,3.37-.16,5-.16a51.53,51.53,0,0,1,16.08,2.29c3.72,1.22,9,3.53,12.9,7.63a8.57,8.57,0,0,1,1.28,1.67.91.91,0,0,0,.17.34l0,0a2.12,2.12,0,0,1,.2.85,5.22,5.22,0,0,1-2-.53,35.87,35.87,0,0,1-3.7-2,26,26,0,0,0-5.16-2.6,25.29,25.29,0,0,0-4.61-.93l-.55-.08c-4.42-.63-8.86-1.55-13.15-2.43A37.81,37.81,0,0,1,60,64.43a5.67,5.67,0,0,1-3-2.1A4.49,4.49,0,0,1,59.06,61.81ZM86.53,76.09A47.17,47.17,0,0,1,78,73.54c-2.54-1-5-2.31-7.46-3.54a66.69,66.69,0,0,0-11.17-4.87c-.33-.1-3.21-1-2.83-2.27a.61.61,0,0,1,.11-.23,6.11,6.11,0,0,0,3.15,2.19,39.35,39.35,0,0,0,5.55,1.43c4.3.89,8.75,1.8,13.18,2.44l.55.07a26.87,26.87,0,0,1,4.54.92,25.93,25.93,0,0,1,5.07,2.56,34,34,0,0,0,3.75,2.06,5.38,5.38,0,0,0,2.12.57l0,.1C93.84,76.28,90.09,76.8,86.53,76.09Zm51.21-6.31c0,.06,0,.1,0,.12a1.89,1.89,0,0,1-.53-.1,37.69,37.69,0,0,0-22.35.49c-1.36.46-2.71,1-4,1.53A31.44,31.44,0,0,1,102,74.43a8.51,8.51,0,0,1-5.12-1h0l.32,0a11,11,0,0,0,2.28.24c2.86,0,5.71-1,8.48-2.08l.07,0a67.9,67.9,0,0,1,14.93-4.08,27.66,27.66,0,0,1,14.8,1.84A2.44,2.44,0,0,1,137.74,69.78Z"/></svg>