<svg id="Layer_1" data-name="Layer 1" xmlns="http://www.w3.org/2000/svg" viewBox="0 0 183 163"><defs><style>.cls-1{fill:#a1a485;opacity:0.2;}.cls-2{fill:#d3ab90;}</style></defs><title>where</title><path class="cls-1" d="M67.11,76.47c-13.38,6.86-23.64,20.37-24.74,35.36-.43,6,.76,12.43,5.08,16.53,2.7,2.57,6.32,3.93,9.95,4.76,11,2.52,22.67.62,33.84,2.5,8.16,1.37,16.2,4.76,24.4,3.7,12.46-1.62,21.61-13.47,24.09-25.79C148.48,70.06,96.88,61.19,67.11,76.47Z"/><path class="cls-2" d="M91.19,92.36a12.27,12.27,0,0,1-2-4.12A27.52,27.52,0,0,1,88,80.09a19.06,19.06,0,0,1,7.06-3.88,17.46,17.46,0,0,1,2-.44c.58-.11,1.18-.21,1.76-.37a8.48,8.48,0,0,0,2.82,3.33A9.78,9.78,0,0,0,106,80.07a11.17,11.17,0,0,0,7.77-1.66c1.41-1,2.58-2.87,2-4.66a4.53,4.53,0,0,0-2.79-2.61,10.63,10.63,0,0,0-6.23-.58,13.44,13.44,0,0,0-3.52,1.32,12.22,12.22,0,0,0,1.56-7.1,2.88,2.88,0,0,0-.33-1.19,2.15,2.15,0,0,0-1.77-1,3.45,3.45,0,0,0-1.68.45,7,7,0,0,0-3.53,5.36,12.4,12.4,0,0,0,.86,5.69c-.45.11-.93.2-1.43.29a18.22,18.22,0,0,0-2.18.48,20.4,20.4,0,0,0-6.61,3.38,55.74,55.74,0,0,1,2-11.51l.37-1.36c.43-1.59.87-3.21,1.2-4.86a1,1,0,0,0,.09.21l.12.16a2,2,0,0,0,1.59.52A12.82,12.82,0,0,0,98.58,60a34.39,34.39,0,0,0,5.86-3.86,30.58,30.58,0,0,0,5.1-4.56,11.41,11.41,0,0,0,2.85-6.42,2.13,2.13,0,0,0-.13-1c-.37-.86-1.39-1.17-2.74-.83a24.28,24.28,0,0,0-13.43,8.32,37,37,0,0,0-3.48,5.89l-.26.49c-.13.23-.26.47-.38.71.07-.57.13-1.14.16-1.72A14.6,14.6,0,0,0,90,48.59a7.59,7.59,0,0,0,3.76-2.72,14,14,0,0,0,2.1-4.28,56,56,0,0,0,1.76-7.84L99,25.52a1.78,1.78,0,0,0-.47-1.77,1.51,1.51,0,0,0-1.07-.26,3.75,3.75,0,0,0-2.1,1.11,24.32,24.32,0,0,0-7.87,15.64,26,26,0,0,0-.1,4.85,27.55,27.55,0,0,0-3.27-3.22A29.15,29.15,0,0,0,73.7,36a10.29,10.29,0,0,0-4.85-.53,2.44,2.44,0,0,0-1.59.86c-.54.73-.47,1.71.21,2.91a20,20,0,0,0,2.2,3.13,20.4,20.4,0,0,0,14.77,7.18c1.67.06,3.29,0,4-.84l.06.11A13.38,13.38,0,0,1,90.75,57,38.58,38.58,0,0,1,89.15,65l-.38,1.37c-.19.73-.39,1.49-.57,2.26a10,10,0,0,0-2.45-2.08,4.39,4.39,0,0,0,.84-.35,5.78,5.78,0,0,0,1.93-2,5.16,5.16,0,0,0,.77-4.36,4.32,4.32,0,0,0-2.42-2.44,7.26,7.26,0,0,0-3.21-.47,4.27,4.27,0,0,0-3.94,3,5.41,5.41,0,0,0,.76,4.85,7.84,7.84,0,0,0-1,0,4.27,4.27,0,0,0-3.94,3,5.39,5.39,0,0,0,1,5.14,3.84,3.84,0,0,0,.57.57,4.74,4.74,0,0,0,5.32.57,5.78,5.78,0,0,0,1.93-2,5.21,5.21,0,0,0,.81-4.21,8.3,8.3,0,0,1,2.53,2.44s.06.06.09.09c-1.2,5.57-1.86,12.06,0,18.25a13.89,13.89,0,0,0,2.26,4.58l0,0a.69.69,0,0,0,1.06-.88Zm23-16.55a21.09,21.09,0,0,1-13.72-.35l0-.07c1.86,0,3.77.09,5.63.19a60.71,60.71,0,0,0,8.2.09Zm-1.29,1.49a9.91,9.91,0,0,1-6.81,1.4,8.42,8.42,0,0,1-3.67-1.13,6.19,6.19,0,0,1-1.64-1.63,21.33,21.33,0,0,0,13.15.3A4.72,4.72,0,0,1,112.92,77.3ZM107,71.91a9.23,9.23,0,0,1,5.42.51,3.33,3.33,0,0,1,2,1.75,1.93,1.93,0,0,1,0,1.14,59.16,59.16,0,0,1-8.31-.07c-1.78-.1-3.6-.2-5.39-.2A18.84,18.84,0,0,1,107,71.91Zm-5.83.54a4.3,4.3,0,0,1-1.55,1.24l.32-.56a24.32,24.32,0,0,0,3.46-7.78A10.81,10.81,0,0,1,101.16,72.45Zm.45-8.16a2.24,2.24,0,0,1,1-.29.79.79,0,0,1,.58.25h0v0c-.29,3.2-2,6.11-3.56,8.68l-.19.31a10.84,10.84,0,0,1-.64-4.66A5.65,5.65,0,0,1,101.61,64.29ZM93.37,59a60.7,60.7,0,0,1,15.33-13.5l-.71.79-.12.13A83.11,83.11,0,0,1,93.12,59.55C93.19,59.38,93.28,59.21,93.37,59ZM111,44.7l0,0a1,1,0,0,1,0,.35,10.27,10.27,0,0,1-2.52,5.63,29.89,29.89,0,0,1-4.89,4.36A32.34,32.34,0,0,1,98,58.77a11.52,11.52,0,0,1-4.54,1.28c-.3,0-.44,0-.48,0v0a1.32,1.32,0,0,0,.29-.15,84,84,0,0,0,14.87-13.18l.12-.13a11.46,11.46,0,0,1,2-2C110.65,44.56,110.9,44.6,111,44.7Zm-13.8,7.8a22.74,22.74,0,0,1,12-7.64,62.28,62.28,0,0,0-15,12.61A33.2,33.2,0,0,1,97.18,52.5Zm-.87-26.87a2.93,2.93,0,0,1,1.39-.81s0,.11,0,.47l-1.44,8.22a54.49,54.49,0,0,1-1.71,7.65A12.91,12.91,0,0,1,92.64,45a6.06,6.06,0,0,1-3.29,2.3h0c-.78-2-.62-4.87-.41-6.95A22.85,22.85,0,0,1,96.31,25.63ZM68.82,38.8l0,0c5.5,3,11.29,5.63,16.9,8.23l1.68.78A29.41,29.41,0,0,1,68.82,38.8Zm-.45-1.64a1.15,1.15,0,0,1,.73-.32,9.08,9.08,0,0,1,4.2.49,27.71,27.71,0,0,1,10,5.58,29.1,29.1,0,0,1,2.93,2.85,10.94,10.94,0,0,1,1.06,1.45c0,.06.06.11.09.16l-1.5-.69C80.07,44,74.11,41.25,68.49,38.2,68.27,37.72,68.23,37.35,68.37,37.16Zm16.13,11a19,19,0,0,1-14.79-8,29.77,29.77,0,0,0,17.18,7.89A9.27,9.27,0,0,1,84.5,48.18ZM81,60.38a2.9,2.9,0,0,1,2.7-2.08,5.9,5.9,0,0,1,2.6.36,3.21,3.21,0,0,1,1.21.88,2.42,2.42,0,0,1,.45.75,4,4,0,0,1-.65,3.18A4.38,4.38,0,0,1,85.89,65a3.39,3.39,0,0,1-3.74-.44A4,4,0,0,1,81,60.38Zm2.16,11a4.38,4.38,0,0,1-1.45,1.57A3.39,3.39,0,0,1,78,72.48a3.93,3.93,0,0,1-1.12-4.21,2.89,2.89,0,0,1,2.7-2.09,5.85,5.85,0,0,1,2.6.36,3.14,3.14,0,0,1,1.21.88,2.42,2.42,0,0,1,.45.75A4,4,0,0,1,83.19,71.35Z"/><path class="cls-2" d="M78.54,60.13a3.21,3.21,0,0,0-1.84-1.86,5.34,5.34,0,0,0-2.38-.36,3.25,3.25,0,0,0-3,2.3,4.07,4.07,0,0,0,.73,3.87,4.47,4.47,0,0,0,.44.43,3.6,3.6,0,0,0,4,.42A4.35,4.35,0,0,0,78,63.41,3.88,3.88,0,0,0,78.54,60.13Zm-5.16,3.32a2.62,2.62,0,0,1-.74-2.8,1.88,1.88,0,0,1,1.75-1.36,4.14,4.14,0,0,1,1.78.25,2.09,2.09,0,0,1,.79.57,1.43,1.43,0,0,1,.28.47,2.68,2.68,0,0,1-.44,2.11,2.94,2.94,0,0,1-1,1.05A2.21,2.21,0,0,1,73.38,63.45Z"/></svg>